<svg id="SvgjsSvg1000" xmlns="http://www.w3.org/2000/svg" version="1.1" xmlns:xlink="http://www.w3.org/1999/xlink" xmlns:svgjs="http://svgjs.com/svgjs" width="20" height="40" viewBox="0 0 20 40"><title>Group 3</title><desc>Created with Avocode.</desc><defs id="SvgjsDefs1001"><clipPath id="SvgjsClipPath1009"><path id="SvgjsPath1008" d="M630 687C630 681.47715 634.47715 677 640 677L640 677C645.52285 677 650 681.47715 650 687L650 707C650 712.52285 645.52285 717 640 717L640 717C634.47715 717 630 712.52285 630 707Z " fill="#ffffff"></path></clipPath></defs><path id="SvgjsPath1007" d="M630 687C630 681.47715 634.47715 677 640 677L640 677C645.52285 677 650 681.47715 650 687L650 707C650 712.52285 645.52285 717 640 717L640 717C634.47715 717 630 712.52285 630 707Z " fill-opacity="0" fill="#ffffff" stroke-dasharray="0" stroke-linejoin="miter" stroke-linecap="butt" stroke-opacity="1" stroke="#ff6e6e" stroke-miterlimit="50" stroke-width="4" clip-path="url(&quot;#SvgjsClipPath1009&quot;)" transform="matrix(1,0,0,1,-630,-677)"></path><path id="SvgjsPath1010" d="M640 685.5L640 697.5 " fill-opacity="0" fill="#ffffff" stroke-dasharray="0" stroke-linejoin="miter" stroke-linecap="square" stroke-opacity="1" stroke="#ff6e6e" stroke-miterlimit="50" stroke-width="2" transform="matrix(1,0,0,1,-630,-677)"></path></svg>