<svg id="SvgjsSvg1081" xmlns="http://www.w3.org/2000/svg" version="1.1" xmlns:xlink="http://www.w3.org/1999/xlink" xmlns:svgjs="http://svgjs.com/svgjs" width="116" height="125" viewBox="0 0 116 125"><title>family-room</title><desc>Created with Avocode.</desc><defs id="SvgjsDefs1082"><linearGradient id="SvgjsLinearGradient1084" gradientUnits="userSpaceOnUse" x1="1036" y1="961.9990983005627" x2="1036" y2="1082.5819068145934"><stop id="SvgjsStop1085" stop-opacity="1" stop-color="#ff8f53" offset="0"></stop><stop id="SvgjsStop1086" stop-opacity="1" stop-color="#fd61a3" offset="0.5"></stop><stop id="SvgjsStop1087" stop-opacity="1" stop-color="#a15bff" offset="1"></stop></linearGradient></defs><path id="SvgjsPath1083" d="M1021.81 1013.95C1021.1199999999999 1015.0600000000001 1019.67 1015.4000000000001 1018.56 1014.71C1018.42 1014.62 1018.28 1014.5400000000001 1018.14 1014.46C1016.88 1019 1013.29 1023.07 1008.78 1023.07L1008.43 1023.07C1004.29 1023.07 1000.54 1019.8900000000001 999.0799999999999 1015.6600000000001C994.8199999999999 1018.8900000000001 992.28 1023.9000000000001 992.28 1029.3500000000001L992.28 1047.3500000000001L1012.6 1060.5200000000002C1013.69 1061.2200000000003 1014 1062.6800000000003 1013.3000000000001 1063.7700000000002C1012.84 1064.4700000000003 1012.09 1064.8500000000001 1011.32 1064.8500000000001C1010.88 1064.8500000000001 1010.4300000000001 1064.72 1010.0300000000001 1064.47L988.6400000000001 1050.6000000000001C987.9700000000001 1050.17 987.57 1049.42 987.57 1048.63L987.57 1029.3500000000001C987.57 1021.1500000000001 992.07 1013.7500000000001 999.34 1009.9300000000002C996.0600000000001 1008.4400000000002 993.1600000000001 1006.1500000000002 990.9100000000001 1003.2100000000002C990.0600000000001 1003.5000000000001 989.1600000000001 1003.6600000000002 988.22 1003.6600000000002C983.69 1003.6600000000002 980 999.9800000000002 980 995.4500000000002L980 989.6000000000001C980 981.9400000000002 982.97 974.7700000000001 988.36 969.4000000000001C993.61 964.1700000000001 1000.57 961.19 1007.95 961.0100000000001C1008.5300000000001 960.9900000000001 1009.13 961.0000000000001 1009.7800000000001 961.0200000000001C1017.19 961.32 1024.1000000000001 964.4200000000001 1029.26 969.7600000000001C1034.42 975.1100000000001 1037.27 982.1600000000001 1037.27 989.6000000000001L1037.27 995.4500000000002C1037.27 999.9800000000001 1033.58 1003.6600000000002 1029.05 1003.6600000000002C1028.11 1003.6600000000002 1027.21 1003.5000000000002 1026.36 1003.2100000000002C1024.32 1005.8800000000001 1021.7399999999999 1008.0100000000001 1018.8199999999999 1009.5000000000001C1019.5899999999999 1009.8600000000001 1020.3299999999999 1010.2600000000001 1021.05 1010.7100000000002C1022.16 1011.3900000000001 1022.5 1012.8500000000001 1021.81 1013.9500000000002ZM1092.27 980.94C1092.37 981.49 1092.27 982.0600000000001 1091.99 982.5500000000001C1091.53 983.34 1090.95 984.0500000000001 1090.29 984.6500000000001C1089.8 992.83 1084.87 999.8500000000001 1077.8899999999999 1003.33C1085.2599999999998 1007.0600000000001 1089.9199999999998 1014.5400000000001 1089.9199999999998 1022.88L1089.9199999999998 1048.63C1089.9199999999998 1049.42 1089.5199999999998 1050.17 1088.85 1050.6000000000001L1066.32 1065.2C1065.9299999999998 1065.46 1065.48 1065.5800000000002 1065.04 1065.5800000000002C1064.27 1065.5800000000002 1063.51 1065.2 1063.06 1064.5100000000002C1062.35 1063.4100000000003 1062.6599999999999 1061.9600000000003 1063.75 1061.2500000000002L1085.2 1047.3500000000001L1085.2 1022.8800000000001C1085.2 1016.94 1082.02 1011.3800000000001 1077.04 1008.2600000000001C1075.69 1012.5600000000001 1072.02 1015.7300000000001 1067.83 1015.7300000000001L1067.48 1015.7300000000001C1063.29 1015.7300000000001 1059.6100000000001 1012.7700000000001 1058.18 1008.7300000000001C1057.19 1009.4200000000002 1056.26 1010.2100000000002 1055.42 1011.1100000000001C1054.53 1012.0600000000002 1053.04 1012.1000000000001 1052.0900000000001 1011.2100000000002C1051.14 1010.3200000000002 1051.0900000000001 1008.8300000000002 1051.9900000000002 1007.8800000000001C1053.7400000000002 1006.0200000000001 1055.7700000000002 1004.4900000000001 1058.0300000000002 1003.3400000000001C1052.7600000000002 1000.7300000000001 1048.6100000000001 996.0900000000001 1046.7200000000003 990.2900000000002C1046.2400000000002 990.1400000000002 1045.7800000000002 989.9500000000002 1045.3300000000002 989.7100000000002C1044.63 989.3500000000001 1044.16 988.6600000000002 1044.0800000000002 987.8700000000001C1043.9900000000002 987.0300000000001 1043.95 986.1800000000001 1043.95 985.3300000000002C1043.95 981.2700000000002 1044.97 977.2400000000001 1046.91 973.6900000000002C1046.93 973.6700000000002 1046.94 973.6500000000002 1046.95 973.6200000000001C1047.25 973.1000000000001 1049.69 968.9800000000001 1053.39 966.1000000000001C1053.39 966.1000000000001 1053.41 966.0800000000002 1053.42 966.0800000000002C1057.72 962.7600000000001 1062.8600000000001 961.0000000000001 1068.3100000000002 961.0000000000001C1071.9900000000002 961.0000000000001 1075.5300000000002 961.8000000000001 1078.8300000000002 963.3800000000001L1078.91 963.4200000000001C1082.3200000000002 964.9300000000001 1084.88 967.32 1086.42 969.0600000000001C1086.43 969.07 1086.43 969.08 1086.44 969.08C1089.45 972.4300000000001 1091.47 976.5300000000001 1092.27 980.94ZM1047.88 1042.5C1054.47 1045.91 1058.65 1052.66 1058.69 1060.18L1058.73 1068.8300000000002C1058.73 1069.64 1058.32 1070.4 1057.63 1070.8300000000002L1040 1081.9600000000003C1039.62 1082.2000000000003 1039.18 1082.3200000000002 1038.74 1082.3200000000002C1038.3 1082.3200000000002 1037.86 1082.2000000000003 1037.48 1081.9500000000003L1019.89 1070.7700000000002C1019.21 1070.3400000000001 1018.8 1069.5900000000001 1018.8 1068.7800000000002L1018.8 1060.1900000000003C1018.8 1052.6900000000003 1022.99 1045.9100000000003 1029.6 1042.5000000000002C1024.26 1039.3600000000001 1020.67 1033.5500000000002 1020.67 1026.9300000000003C1020.67 1023.9400000000003 1021.39 1021.1200000000003 1022.68 1018.6400000000003C1022.7299999999999 1018.5400000000003 1022.78 1018.4400000000003 1022.8399999999999 1018.3500000000004C1025.8999999999999 1012.7100000000004 1031.8799999999999 1008.8700000000003 1038.74 1008.8700000000003C1045.61 1008.8700000000003 1051.59 1012.7100000000004 1054.65 1018.3500000000004C1054.71 1018.4400000000004 1054.76 1018.5400000000004 1054.8100000000002 1018.6500000000003C1056.0900000000001 1021.1300000000003 1056.8200000000002 1023.9400000000003 1056.8200000000002 1026.9300000000003C1056.8200000000002 1033.5500000000002 1053.2300000000002 1039.3600000000004 1047.88 1042.5000000000002ZM994.05 981.04C994.4699999999999 980.3199999999999 995.25 979.88 996.0799999999999 979.88L1007.54 979.88C1008 978.3 1008.3 976.68 1008.43 975.03C1008.4799999999999 974.38 1008.8 973.78 1009.31 973.38C1009.8199999999999 972.97 1010.4799999999999 972.79 1011.1199999999999 972.89C1019.3499999999999 974.1 1025.55 981.29 1025.55 989.6L1025.55 995.45C1025.55 996.57 1026.07 997.57 1026.8899999999999 998.21C1026.9599999999998 998.25 1027.03 998.3000000000001 1027.09 998.35C1027.6499999999999 998.73 1028.33 998.95 1029.05 998.95C1030.98 998.95 1032.55 997.38 1032.55 995.45L1032.55 989.6C1032.55 976.73 1022.4699999999999 966.24 1009.5899999999999 965.73C1009.05 965.71 1008.55 965.71 1008.06 965.72C994.9699999999999 966.03 984.7199999999999 976.52 984.7199999999999 989.6L984.7199999999999 995.45C984.7199999999999 997.38 986.29 998.95 988.2199999999999 998.95C988.9399999999999 998.95 989.6199999999999 998.73 990.18 998.35C990.2399999999999 998.3000000000001 990.31 998.25 990.38 998.21C991.1899999999999 997.57 991.72 996.57 991.72 995.45L991.72 989.6C991.72 986.59 992.53 983.63 994.0500000000001 981.0400000000001ZM1038.75 1077.18L1054.01 1067.55L1053.97 1060.2C1053.95 1054.95 1051.27 1050.18 1046.97 1047.41C1045.6100000000001 1050.63 1042.47 1052.94 1038.91 1052.94L1038.6200000000001 1052.94C1035.3200000000002 1052.94 1031.8500000000001 1050.8600000000001 1030.38 1047.5C1026.14 1050.28 1023.5200000000001 1055.01 1023.5200000000001 1060.19L1023.5200000000001 1067.49ZM1084.37 982.24C1085.55 982.24 1086.6599999999999 981.72 1087.4399999999998 980.84C1086.6899999999998 977.64 1085.1299999999999 974.6700000000001 1082.8999999999999 972.2C1082.8899999999999 972.19 1082.8799999999999 972.1700000000001 1082.86 972.1500000000001C1081.6299999999999 970.7700000000001 1079.61 968.8800000000001 1076.99 967.7200000000001C1076.9 967.6800000000002 1076.83 967.6500000000001 1076.79 967.6300000000001C1074.1299999999999 966.3600000000001 1071.28 965.7100000000002 1068.31 965.7100000000002C1063.9199999999998 965.7100000000002 1059.77 967.1300000000001 1056.3 969.8000000000002C1056.3 969.8000000000002 1056.29 969.8100000000002 1056.29 969.8200000000002C1053.21 972.2200000000001 1051.08 975.9100000000002 1051.06 975.9400000000002C1051.05 975.9500000000002 1051.05 975.9600000000002 1051.04 975.9700000000001C1049.49 978.8300000000002 1048.6599999999999 982.0600000000002 1048.6599999999999 985.3300000000002C1048.6599999999999 985.5300000000002 1048.6699999999998 985.7300000000001 1048.6699999999998 985.9400000000002C1048.7299999999998 985.9500000000002 1048.7799999999997 985.9500000000002 1048.83 985.9600000000002C1048.87 985.9600000000002 1048.8999999999999 985.9700000000001 1048.9399999999998 985.9700000000001C1049.09 985.9900000000001 1049.2399999999998 986.0000000000001 1049.3899999999999 986.0000000000001C1051.6499999999999 986.0000000000001 1053.4799999999998 984.1700000000001 1053.4799999999998 981.9200000000001L1053.4799999999998 980.4900000000001C1053.4799999999998 979.7800000000001 1053.8099999999997 979.1000000000001 1054.36 978.6500000000001C1054.9199999999998 978.21 1055.6399999999999 978.0300000000001 1056.34 978.19C1058.3 978.61 1060.32 978.82 1062.36 978.82C1067.57 978.82 1072.52 977.45 1076.6699999999998 974.85C1077.3999999999999 974.39 1078.32 974.36 1079.07 974.78C1079.82 975.1899999999999 1080.28 975.98 1080.28 976.8399999999999L1080.28 978.1499999999999C1080.28 980.3999999999999 1082.12 982.2399999999999 1084.37 982.2399999999999ZM1067.97 1000.95C1076.44 1000.95 1083.58 994.9100000000001 1085.24 986.9000000000001C1084.95 986.9300000000001 1084.66 986.95 1084.3700000000001 986.95C1080.3700000000001 986.95 1076.98 984.2700000000001 1075.92 980.61C1071.78 982.53 1067.16 983.53 1062.3600000000001 983.53C1060.93 983.53 1059.5000000000002 983.4399999999999 1058.1000000000001 983.26C1057.5700000000002 986.68 1055.0600000000002 989.45 1051.7900000000002 990.38C1054.5500000000002 996.72 1060.8600000000001 1000.95 1067.9700000000003 1000.95ZM1025.38 1026.93C1025.38 1034.29 1031.38 1040.27 1038.74 1040.27C1046.11 1040.27 1052.1 1034.29 1052.1 1026.93C1052.1 1025.4 1051.85 1023.9200000000001 1051.37 1022.5500000000001C1047.4799999999998 1023.8000000000001 1043.1599999999999 1024.45 1038.7399999999998 1024.45C1034.3299999999997 1024.45 1030.0099999999998 1023.8000000000001 1026.12 1022.5500000000001C1025.6399999999999 1023.9200000000001 1025.3799999999999 1025.4 1025.3799999999999 1026.93ZM1038.74 1013.58C1034.64 1013.58 1030.96 1015.44 1028.51 1018.36C1031.69 1019.27 1035.17 1019.74 1038.74 1019.74C1042.32 1019.74 1045.8 1019.27 1048.98 1018.36C1046.53 1015.44 1042.85 1013.58 1038.74 1013.58ZM1008.78 1018.36C1011.15 1018.36 1013.75 1014.74 1013.91 1011.3100000000001C1012.2099999999999 1011.72 1010.4399999999999 1011.9300000000001 1008.64 1011.9300000000001C1006.73 1011.9300000000001 1004.86 1011.7 1003.0699999999999 1011.24C1003.1199999999999 1011.4300000000001 1003.15 1011.63 1003.15 1011.84C1003.15 1015.13 1005.77 1018.36 1008.43 1018.36ZM1067.83 1011.02C1070.3999999999999 1011.02 1072.6699999999998 1008.31 1072.85 1005.12C1071.28 1005.48 1069.6399999999999 1005.66 1067.9699999999998 1005.66C1066.0099999999998 1005.66 1064.0899999999997 1005.41 1062.2699999999998 1004.93C1062.2699999999998 1004.9699999999999 1062.2699999999998 1005.01 1062.2699999999998 1005.05C1062.2699999999998 1008.28 1064.6499999999999 1011.02 1067.4799999999998 1011.02ZM1042.93 1044.49C1041.5900000000001 1044.81 1040.18 1044.98 1038.74 1044.98C1037.24 1044.98 1035.79 1044.8 1034.39 1044.45C1034.66 1046.64 1036.75 1048.23 1038.6200000000001 1048.23L1038.91 1048.23C1040.68 1048.23 1042.63 1046.72 1042.93 1044.49ZM1008.64 1007.22C1014.13 1007.22 1019.1999999999999 1004.72 1022.54 1000.45C1021.4699999999999 999.07 1020.8299999999999 997.33 1020.8299999999999 995.45L1020.8299999999999 989.6C1020.8299999999999 984.4300000000001 1017.4999999999999 979.86 1012.78 978.14C1012.49 979.8199999999999 1012.04 981.46 1011.4499999999999 983.05C1011.1099999999999 983.9799999999999 1010.2299999999999 984.5899999999999 1009.2399999999999 984.5899999999999L997.5099999999999 984.5899999999999C996.8099999999998 986.16 996.4399999999998 987.8699999999999 996.4399999999998 989.5999999999999L996.4399999999998 995.4499999999999C996.4399999999998 997.3299999999999 995.7999999999998 999.0699999999999 994.7299999999998 1000.4499999999999C998.0699999999998 1004.7199999999999 1003.1399999999998 1007.2199999999999 1008.6399999999998 1007.2199999999999Z " fill="url(#SvgjsLinearGradient1084)" transform="matrix(1,0,0,1,-977,-958)"></path><path id="SvgjsPath1088" d="M1018.81 1011.95C1018.1199999999999 1013.0600000000001 1016.67 1013.4000000000001 1015.56 1012.71C1015.42 1012.62 1015.28 1012.5400000000001 1015.14 1012.46C1013.88 1017 1010.29 1021.07 1005.78 1021.07L1005.43 1021.07C1001.29 1021.07 997.54 1017.8900000000001 996.0799999999999 1013.6600000000001C991.8199999999999 1016.8900000000001 989.28 1021.9000000000001 989.28 1027.3500000000001L989.28 1045.3500000000001L1009.6 1058.5200000000002C1010.69 1059.2200000000003 1011 1060.6800000000003 1010.3000000000001 1061.7700000000002C1009.84 1062.4700000000003 1009.09 1062.8500000000001 1008.32 1062.8500000000001C1007.88 1062.8500000000001 1007.4300000000001 1062.72 1007.0300000000001 1062.47L985.6400000000001 1048.6000000000001C984.9700000000001 1048.17 984.57 1047.42 984.57 1046.63L984.57 1027.3500000000001C984.57 1019.1500000000001 989.07 1011.7500000000001 996.34 1007.9300000000002C993.0600000000001 1006.4400000000002 990.1600000000001 1004.1500000000002 987.9100000000001 1001.2100000000002C987.0600000000001 1001.5000000000001 986.1600000000001 1001.6600000000002 985.22 1001.6600000000002C980.69 1001.6600000000002 977 997.9800000000002 977 993.4500000000002L977 987.6000000000001C977 979.9400000000002 979.97 972.7700000000001 985.36 967.4000000000001C990.61 962.1700000000001 997.57 959.19 1004.95 959.0100000000001C1005.5300000000001 958.9900000000001 1006.13 959.0000000000001 1006.7800000000001 959.0200000000001C1014.19 959.32 1021.1000000000001 962.4200000000001 1026.26 967.7600000000001C1031.42 973.1100000000001 1034.27 980.1600000000001 1034.27 987.6000000000001L1034.27 993.4500000000002C1034.27 997.9800000000001 1030.58 1001.6600000000002 1026.05 1001.6600000000002C1025.11 1001.6600000000002 1024.21 1001.5000000000002 1023.3599999999999 1001.2100000000002C1021.3199999999999 1003.8800000000001 1018.7399999999999 1006.0100000000001 1015.8199999999999 1007.5000000000001C1016.5899999999999 1007.8600000000001 1017.3299999999999 1008.2600000000001 1018.05 1008.7100000000002C1019.16 1009.3900000000001 1019.5 1010.8500000000001 1018.81 1011.9500000000002ZM1089.27 978.94C1089.37 979.49 1089.27 980.0600000000001 1088.99 980.5500000000001C1088.53 981.34 1087.95 982.0500000000001 1087.29 982.6500000000001C1086.8 990.83 1081.87 997.8500000000001 1074.8899999999999 1001.33C1082.2599999999998 1005.0600000000001 1086.9199999999998 1012.5400000000001 1086.9199999999998 1020.88L1086.9199999999998 1046.63C1086.9199999999998 1047.42 1086.5199999999998 1048.17 1085.85 1048.6000000000001L1063.32 1063.2C1062.9299999999998 1063.46 1062.48 1063.5800000000002 1062.04 1063.5800000000002C1061.27 1063.5800000000002 1060.51 1063.2 1060.06 1062.5100000000002C1059.35 1061.4100000000003 1059.6599999999999 1059.9600000000003 1060.75 1059.2500000000002L1082.2 1045.3500000000001L1082.2 1020.8800000000001C1082.2 1014.94 1079.02 1009.3800000000001 1074.04 1006.2600000000001C1072.69 1010.5600000000001 1069.02 1013.7300000000001 1064.83 1013.7300000000001L1064.48 1013.7300000000001C1060.29 1013.7300000000001 1056.6100000000001 1010.7700000000001 1055.18 1006.7300000000001C1054.19 1007.4200000000002 1053.26 1008.2100000000002 1052.42 1009.1100000000001C1051.53 1010.0600000000002 1050.04 1010.1000000000001 1049.0900000000001 1009.2100000000002C1048.14 1008.3200000000002 1048.0900000000001 1006.8300000000002 1048.9900000000002 1005.8800000000001C1050.7400000000002 1004.0200000000001 1052.7700000000002 1002.4900000000001 1055.0300000000002 1001.3400000000001C1049.7600000000002 998.7300000000001 1045.6100000000001 994.0900000000001 1043.7200000000003 988.2900000000002C1043.2400000000002 988.1400000000002 1042.7800000000002 987.9500000000002 1042.3300000000002 987.7100000000002C1041.63 987.3500000000001 1041.16 986.6600000000002 1041.0800000000002 985.8700000000001C1040.9900000000002 985.0300000000001 1040.95 984.1800000000001 1040.95 983.3300000000002C1040.95 979.2700000000002 1041.97 975.2400000000001 1043.91 971.6900000000002C1043.93 971.6700000000002 1043.94 971.6500000000002 1043.95 971.6200000000001C1044.25 971.1000000000001 1046.69 966.9800000000001 1050.39 964.1000000000001C1050.39 964.1000000000001 1050.41 964.0800000000002 1050.42 964.0800000000002C1054.72 960.7600000000001 1059.8600000000001 959.0000000000001 1065.3100000000002 959.0000000000001C1068.9900000000002 959.0000000000001 1072.5300000000002 959.8000000000001 1075.8300000000002 961.3800000000001L1075.91 961.4200000000001C1079.3200000000002 962.9300000000001 1081.88 965.32 1083.42 967.0600000000001C1083.43 967.07 1083.43 967.08 1083.44 967.08C1086.45 970.4300000000001 1088.47 974.5300000000001 1089.27 978.94ZM1044.88 1040.5C1051.47 1043.91 1055.65 1050.66 1055.69 1058.18L1055.73 1066.8300000000002C1055.73 1067.64 1055.32 1068.4 1054.63 1068.8300000000002L1037 1079.9600000000003C1036.62 1080.2000000000003 1036.18 1080.3200000000002 1035.74 1080.3200000000002C1035.3 1080.3200000000002 1034.86 1080.2000000000003 1034.48 1079.9500000000003L1016.89 1068.7700000000002C1016.21 1068.3400000000001 1015.8 1067.5900000000001 1015.8 1066.7800000000002L1015.8 1058.1900000000003C1015.8 1050.6900000000003 1019.99 1043.9100000000003 1026.6 1040.5000000000002C1021.2599999999999 1037.3600000000001 1017.67 1031.5500000000002 1017.67 1024.9300000000003C1017.67 1021.9400000000003 1018.39 1019.1200000000003 1019.68 1016.6400000000003C1019.7299999999999 1016.5400000000003 1019.78 1016.4400000000003 1019.8399999999999 1016.3500000000004C1022.8999999999999 1010.7100000000004 1028.8799999999999 1006.8700000000003 1035.74 1006.8700000000003C1042.61 1006.8700000000003 1048.59 1010.7100000000004 1051.65 1016.3500000000004C1051.71 1016.4400000000004 1051.76 1016.5400000000004 1051.8100000000002 1016.6500000000003C1053.0900000000001 1019.1300000000003 1053.8200000000002 1021.9400000000003 1053.8200000000002 1024.9300000000003C1053.8200000000002 1031.5500000000002 1050.2300000000002 1037.3600000000004 1044.88 1040.5000000000002ZM991.05 979.04C991.4699999999999 978.3199999999999 992.25 977.88 993.0799999999999 977.88L1004.54 977.88C1005 976.3 1005.3 974.68 1005.43 973.03C1005.4799999999999 972.38 1005.8 971.78 1006.31 971.38C1006.8199999999999 970.97 1007.4799999999999 970.79 1008.1199999999999 970.89C1016.3499999999999 972.1 1022.5499999999998 979.29 1022.5499999999998 987.6L1022.5499999999998 993.45C1022.5499999999998 994.57 1023.0699999999998 995.57 1023.8899999999999 996.21C1023.9599999999999 996.25 1024.03 996.3000000000001 1024.09 996.35C1024.6499999999999 996.73 1025.33 996.95 1026.05 996.95C1027.98 996.95 1029.55 995.38 1029.55 993.45L1029.55 987.6C1029.55 974.73 1019.4699999999999 964.24 1006.5899999999999 963.73C1006.05 963.71 1005.55 963.71 1005.06 963.72C991.9699999999999 964.03 981.7199999999999 974.52 981.7199999999999 987.6L981.7199999999999 993.45C981.7199999999999 995.38 983.29 996.95 985.2199999999999 996.95C985.9399999999999 996.95 986.6199999999999 996.73 987.18 996.35C987.2399999999999 996.3000000000001 987.31 996.25 987.38 996.21C988.1899999999999 995.57 988.72 994.57 988.72 993.45L988.72 987.6C988.72 984.59 989.53 981.63 991.0500000000001 979.0400000000001ZM1035.75 1075.18L1051.01 1065.55L1050.97 1058.2C1050.95 1052.95 1048.27 1048.18 1043.97 1045.41C1042.6100000000001 1048.63 1039.47 1050.94 1035.91 1050.94L1035.6200000000001 1050.94C1032.3200000000002 1050.94 1028.8500000000001 1048.8600000000001 1027.38 1045.5C1023.1400000000001 1048.28 1020.5200000000001 1053.01 1020.5200000000001 1058.19L1020.5200000000001 1065.49ZM1081.37 980.24C1082.55 980.24 1083.6599999999999 979.72 1084.4399999999998 978.84C1083.6899999999998 975.64 1082.1299999999999 972.6700000000001 1079.8999999999999 970.2C1079.8899999999999 970.19 1079.8799999999999 970.1700000000001 1079.86 970.1500000000001C1078.6299999999999 968.7700000000001 1076.61 966.8800000000001 1073.99 965.7200000000001C1073.9 965.6800000000002 1073.83 965.6500000000001 1073.79 965.6300000000001C1071.1299999999999 964.3600000000001 1068.28 963.7100000000002 1065.31 963.7100000000002C1060.9199999999998 963.7100000000002 1056.77 965.1300000000001 1053.3 967.8000000000002C1053.3 967.8000000000002 1053.29 967.8100000000002 1053.29 967.8200000000002C1050.21 970.2200000000001 1048.08 973.9100000000002 1048.06 973.9400000000002C1048.05 973.9500000000002 1048.05 973.9600000000002 1048.04 973.9700000000001C1046.49 976.8300000000002 1045.6599999999999 980.0600000000002 1045.6599999999999 983.3300000000002C1045.6599999999999 983.5300000000002 1045.6699999999998 983.7300000000001 1045.6699999999998 983.9400000000002C1045.7299999999998 983.9500000000002 1045.7799999999997 983.9500000000002 1045.83 983.9600000000002C1045.87 983.9600000000002 1045.8999999999999 983.9700000000001 1045.9399999999998 983.9700000000001C1046.09 983.9900000000001 1046.2399999999998 984.0000000000001 1046.3899999999999 984.0000000000001C1048.6499999999999 984.0000000000001 1050.4799999999998 982.1700000000001 1050.4799999999998 979.9200000000001L1050.4799999999998 978.4900000000001C1050.4799999999998 977.7800000000001 1050.8099999999997 977.1000000000001 1051.36 976.6500000000001C1051.9199999999998 976.21 1052.6399999999999 976.0300000000001 1053.34 976.19C1055.3 976.61 1057.32 976.82 1059.36 976.82C1064.57 976.82 1069.52 975.45 1073.6699999999998 972.85C1074.3999999999999 972.39 1075.32 972.36 1076.07 972.78C1076.82 973.1899999999999 1077.28 973.98 1077.28 974.8399999999999L1077.28 976.1499999999999C1077.28 978.3999999999999 1079.12 980.2399999999999 1081.37 980.2399999999999ZM1064.97 998.95C1073.44 998.95 1080.58 992.9100000000001 1082.24 984.9000000000001C1081.95 984.9300000000001 1081.66 984.95 1081.3700000000001 984.95C1077.3700000000001 984.95 1073.98 982.2700000000001 1072.92 978.61C1068.78 980.53 1064.16 981.53 1059.3600000000001 981.53C1057.93 981.53 1056.5000000000002 981.4399999999999 1055.1000000000001 981.26C1054.5700000000002 984.68 1052.0600000000002 987.45 1048.7900000000002 988.38C1051.5500000000002 994.72 1057.8600000000001 998.95 1064.9700000000003 998.95ZM1022.38 1024.93C1022.38 1032.29 1028.38 1038.27 1035.74 1038.27C1043.11 1038.27 1049.1 1032.29 1049.1 1024.93C1049.1 1023.4000000000001 1048.85 1021.9200000000001 1048.37 1020.5500000000001C1044.4799999999998 1021.8000000000001 1040.1599999999999 1022.45 1035.7399999999998 1022.45C1031.3299999999997 1022.45 1027.0099999999998 1021.8000000000001 1023.1199999999998 1020.5500000000001C1022.6399999999998 1021.9200000000001 1022.3799999999998 1023.4000000000001 1022.3799999999998 1024.93ZM1035.74 1011.58C1031.64 1011.58 1027.96 1013.44 1025.51 1016.36C1028.69 1017.27 1032.17 1017.74 1035.74 1017.74C1039.32 1017.74 1042.8 1017.27 1045.98 1016.36C1043.53 1013.44 1039.85 1011.58 1035.74 1011.58ZM1005.78 1016.36C1008.15 1016.36 1010.75 1012.74 1010.91 1009.3100000000001C1009.2099999999999 1009.72 1007.4399999999999 1009.9300000000001 1005.64 1009.9300000000001C1003.73 1009.9300000000001 1001.86 1009.7 1000.0699999999999 1009.24C1000.1199999999999 1009.4300000000001 1000.15 1009.63 1000.15 1009.84C1000.15 1013.13 1002.77 1016.36 1005.43 1016.36ZM1064.83 1009.02C1067.3999999999999 1009.02 1069.6699999999998 1006.31 1069.85 1003.12C1068.28 1003.48 1066.6399999999999 1003.66 1064.9699999999998 1003.66C1063.0099999999998 1003.66 1061.0899999999997 1003.41 1059.2699999999998 1002.93C1059.2699999999998 1002.9699999999999 1059.2699999999998 1003.01 1059.2699999999998 1003.05C1059.2699999999998 1006.28 1061.6499999999999 1009.02 1064.4799999999998 1009.02ZM1039.93 1042.49C1038.5900000000001 1042.81 1037.18 1042.98 1035.74 1042.98C1034.24 1042.98 1032.79 1042.8 1031.39 1042.45C1031.66 1044.64 1033.75 1046.23 1035.6200000000001 1046.23L1035.91 1046.23C1037.68 1046.23 1039.63 1044.72 1039.93 1042.49ZM1005.64 1005.22C1011.13 1005.22 1016.1999999999999 1002.72 1019.54 998.45C1018.4699999999999 997.07 1017.8299999999999 995.33 1017.8299999999999 993.45L1017.8299999999999 987.6C1017.8299999999999 982.4300000000001 1014.4999999999999 977.86 1009.78 976.14C1009.49 977.8199999999999 1009.04 979.46 1008.4499999999999 981.05C1008.1099999999999 981.9799999999999 1007.2299999999999 982.5899999999999 1006.2399999999999 982.5899999999999L994.5099999999999 982.5899999999999C993.8099999999998 984.16 993.4399999999998 985.8699999999999 993.4399999999998 987.5999999999999L993.4399999999998 993.4499999999999C993.4399999999998 995.3299999999999 992.7999999999998 997.0699999999999 991.7299999999998 998.4499999999999C995.0699999999998 1002.7199999999999 1000.1399999999998 1005.2199999999999 1005.6399999999998 1005.2199999999999Z " fill="#292033" fill-opacity="1" transform="matrix(1,0,0,1,-977,-958)"></path></svg>