<svg id="SvgjsSvg1037" xmlns="http://www.w3.org/2000/svg" version="1.1" xmlns:xlink="http://www.w3.org/1999/xlink" xmlns:svgjs="http://svgjs.com/svgjs" width="116" height="105" viewBox="0 0 116 105"><title>money</title><desc>Created with Avocode.</desc><defs id="SvgjsDefs1038"><linearGradient id="SvgjsLinearGradient1040" gradientUnits="userSpaceOnUse" x1="636.9993601526105" y1="985.7516071428572" x2="636.9993601526105" y2="1066.180736607143"><stop id="SvgjsStop1041" stop-opacity="1" stop-color="#ff8f53" offset="0"></stop><stop id="SvgjsStop1042" stop-opacity="1" stop-color="#fd61a3" offset="0.52"></stop><stop id="SvgjsStop1043" stop-opacity="1" stop-color="#a15bff" offset="1"></stop></linearGradient><linearGradient id="SvgjsLinearGradient1045" gradientUnits="userSpaceOnUse" x1="681.9983804932763" y1="1017.5553798555211" x2="681.9983804932763" y2="1033.832703675674"><stop id="SvgjsStop1046" stop-opacity="1" stop-color="#ff8f53" offset="0"></stop><stop id="SvgjsStop1047" stop-opacity="1" stop-color="#fd61a3" offset="0.52"></stop><stop id="SvgjsStop1048" stop-opacity="1" stop-color="#a15bff" offset="1"></stop></linearGradient><linearGradient id="SvgjsLinearGradient1050" gradientUnits="userSpaceOnUse" x1="612.5008144009282" y1="1034.9182251152142" x2="612.5008144009282" y2="1061.7279349366427"><stop id="SvgjsStop1051" stop-opacity="1" stop-color="#ff8f53" offset="0"></stop><stop id="SvgjsStop1052" stop-opacity="1" stop-color="#fd61a3" offset="0.52"></stop><stop id="SvgjsStop1053" stop-opacity="1" stop-color="#a15bff" offset="1"></stop></linearGradient><linearGradient id="SvgjsLinearGradient1055" gradientUnits="userSpaceOnUse" x1="681.9983804932763" y1="1027.555379855521" x2="681.9983804932763" y2="1043.8327036756743"><stop id="SvgjsStop1056" stop-opacity="1" stop-color="#ff8f53" offset="0"></stop><stop id="SvgjsStop1057" stop-opacity="1" stop-color="#fd61a3" offset="0.52"></stop><stop id="SvgjsStop1058" stop-opacity="1" stop-color="#a15bff" offset="1"></stop></linearGradient><linearGradient id="SvgjsLinearGradient1060" gradientUnits="userSpaceOnUse" x1="612.5008144009282" y1="1044.9182251152142" x2="612.5008144009282" y2="1071.7279349366427"><stop id="SvgjsStop1061" stop-opacity="1" stop-color="#ff8f53" offset="0"></stop><stop id="SvgjsStop1062" stop-opacity="1" stop-color="#fd61a3" offset="0.52"></stop><stop id="SvgjsStop1063" stop-opacity="1" stop-color="#a15bff" offset="1"></stop></linearGradient><linearGradient id="SvgjsLinearGradient1065" gradientUnits="userSpaceOnUse" x1="681.9983804932763" y1="1037.555379855521" x2="681.9983804932763" y2="1053.8327036756743"><stop id="SvgjsStop1066" stop-opacity="1" stop-color="#ff8f53" offset="0"></stop><stop id="SvgjsStop1067" stop-opacity="1" stop-color="#fd61a3" offset="0.52"></stop><stop id="SvgjsStop1068" stop-opacity="1" stop-color="#a15bff" offset="1"></stop></linearGradient><linearGradient id="SvgjsLinearGradient1070" gradientUnits="userSpaceOnUse" x1="612.5008144009282" y1="1055.918225115214" x2="612.5008144009282" y2="1082.7279349366424"><stop id="SvgjsStop1071" stop-opacity="1" stop-color="#ff8f53" offset="0"></stop><stop id="SvgjsStop1072" stop-opacity="1" stop-color="#fd61a3" offset="0.52"></stop><stop id="SvgjsStop1073" stop-opacity="1" stop-color="#a15bff" offset="1"></stop></linearGradient></defs><path id="SvgjsPath1039" d="M665.88 1024.21C665.87 1024.1000000000001 665.85 1024 665.82 1023.9000000000001C665.7900000000001 1023.8000000000001 665.7600000000001 1023.71 665.72 1023.6200000000001C665.71 1023.5900000000001 665.7 1023.5700000000002 665.69 1023.5400000000001C665.6600000000001 1023.47 665.6300000000001 1023.4100000000001 665.59 1023.34C665.57 1023.3100000000001 665.5600000000001 1023.2900000000001 665.5400000000001 1023.26C665.5300000000001 1023.24 665.5300000000001 1023.23 665.5200000000001 1023.21C665.4800000000001 1023.1500000000001 665.44 1023.1 665.4000000000001 1023.0400000000001C665.3900000000001 1023.0300000000001 665.3800000000001 1023.0200000000001 665.3700000000001 1023.0100000000001C665.3100000000002 1022.9300000000001 665.2400000000001 1022.8500000000001 665.1700000000001 1022.7800000000001C665.1600000000001 1022.7700000000001 665.1400000000001 1022.7500000000001 665.1300000000001 1022.7400000000001C665.0700000000002 1022.6800000000002 665.0000000000001 1022.6200000000001 664.9300000000001 1022.5700000000002C664.9200000000001 1022.5600000000002 664.9000000000001 1022.5400000000002 664.8800000000001 1022.5300000000002C664.7900000000001 1022.4600000000002 664.7000000000002 1022.4000000000002 664.6000000000001 1022.3500000000003L627.1500000000001 1001.0700000000003L648.71 987.5000000000002L684.86 1008.0400000000002L669.64 1017.6200000000002C668.4499999999999 1018.3600000000002 668.09 1019.9300000000002 668.84 1021.1200000000002C669.59 1022.3100000000003 671.1600000000001 1022.6600000000002 672.35 1021.9200000000002L691.16 1010.0700000000002C691.92 1009.6000000000001 692.37 1008.7600000000002 692.35 1007.8700000000001C692.33 1006.9700000000001 691.84 1006.1600000000001 691.0600000000001 1005.7200000000001L649.9000000000001 982.3300000000002C649.0900000000001 981.8700000000001 648.0900000000001 981.8900000000001 647.2900000000001 982.3900000000001L620.8700000000001 999.0200000000001C620.8600000000001 999.0200000000001 620.8600000000001 999.0300000000001 620.8500000000001 999.0300000000001L607.6500000000001 1007.34C607.6400000000001 1007.35 607.6400000000001 1007.35 607.6300000000001 1007.35L581.19 1023.99C580.4300000000001 1024.47 579.98 1025.31 580 1026.2C580.02 1027.1000000000001 580.51 1027.91 581.29 1028.3500000000001L622.4499999999999 1051.7400000000002C622.8399999999999 1051.9600000000003 623.27 1052.0700000000002 623.6999999999999 1052.0700000000002C624.17 1052.0700000000002 624.64 1051.94 625.06 1051.68L643.8699999999999 1039.8400000000001C645.06 1039.0900000000001 645.4199999999998 1037.5200000000002 644.6699999999998 1036.3300000000002C643.9199999999998 1035.15 642.3499999999998 1034.7900000000002 641.1699999999998 1035.5400000000002L623.6399999999999 1046.5700000000002L587.4899999999999 1026.0300000000002L609.0499999999998 1012.4600000000002L647.5999999999998 1034.3700000000001L647.5999999999998 1063.3700000000001C647.5999999999998 1064.3000000000002 648.1099999999998 1065.15 648.9199999999998 1065.6000000000001C649.2999999999998 1065.8100000000002 649.7199999999998 1065.91 650.1399999999999 1065.91C650.6199999999999 1065.91 651.0899999999999 1065.78 651.4999999999999 1065.52L664.7199999999999 1057.2C665.4599999999999 1056.74 665.91 1055.93 665.91 1055.05L665.91 1024.57C665.91 1024.55 665.91 1024.54 665.9 1024.52C665.9 1024.44 665.9 1024.35 665.89 1024.27C665.89 1024.25 665.88 1024.23 665.88 1024.21ZM652.69 1032.89C652.69 1031.97 652.2 1031.13 651.4000000000001 1030.68L613.9300000000001 1009.3900000000001L622.2700000000001 1004.1400000000001L658.4200000000001 1024.68L655.2500000000001 1026.67C654.0700000000002 1027.42 653.7100000000002 1028.99 654.4600000000002 1030.17C654.9400000000002 1030.94 655.7700000000001 1031.3600000000001 656.6100000000001 1031.3600000000001C657.0700000000002 1031.3600000000001 657.5400000000001 1031.23 657.9600000000002 1030.97L660.8200000000002 1029.17L660.8200000000002 1053.65L652.6900000000002 1058.77Z " fill="url(#SvgjsLinearGradient1040)" transform="matrix(1,0,0,1,-577,-979)"></path><path id="SvgjsPath1044" d="M689 1016.39L670.19 1028.23C669 1028.98 668.6400000000001 1030.55 669.3900000000001 1031.74C669.8700000000001 1032.5 670.7 1032.92 671.5400000000001 1032.92C672.0100000000001 1032.92 672.4800000000001 1032.8000000000002 672.9000000000001 1032.53L691.71 1020.6899999999999C692.9000000000001 1019.9399999999999 693.26 1018.3699999999999 692.51 1017.1899999999999C691.76 1015.9999999999999 690.1899999999999 1015.64 689 1016.39Z " fill="url(#SvgjsLinearGradient1045)" transform="matrix(1,0,0,1,-577,-979)"></path><path id="SvgjsPath1049" d="M641.17 1045.93L623.64 1056.97L583.8 1034.33C582.5799999999999 1033.6399999999999 581.03 1034.07 580.3299999999999 1035.29C579.6399999999999 1036.51 580.0699999999999 1038.06 581.29 1038.75L622.4499999999999 1062.13C622.8399999999999 1062.3600000000001 623.27 1062.47 623.6999999999999 1062.47C624.17 1062.47 624.64 1062.34 625.06 1062.08L643.8699999999999 1050.23C645.06 1049.49 645.4199999999998 1047.92 644.6699999999998 1046.73C643.9199999999998 1045.54 642.3499999999998 1045.19 641.1699999999998 1045.93Z " fill="url(#SvgjsLinearGradient1050)" transform="matrix(1,0,0,1,-577,-979)"></path><path id="SvgjsPath1054" d="M689 1026.39L670.19 1038.23C669 1038.98 668.6400000000001 1040.55 669.3900000000001 1041.74C669.8700000000001 1042.5 670.7 1042.92 671.5400000000001 1042.92C672.0100000000001 1042.92 672.4800000000001 1042.8000000000002 672.9000000000001 1042.53L691.71 1030.69C692.9000000000001 1029.94 693.26 1028.3700000000001 692.51 1027.19C691.76 1026 690.1899999999999 1025.64 689 1026.39Z " fill="url(#SvgjsLinearGradient1055)" transform="matrix(1,0,0,1,-577,-979)"></path><path id="SvgjsPath1059" d="M641.17 1055.93L623.64 1066.97L583.8 1044.33C582.5799999999999 1043.6399999999999 581.03 1044.07 580.3299999999999 1045.29C579.6399999999999 1046.51 580.0699999999999 1048.06 581.29 1048.75L622.4499999999999 1072.13C622.8399999999999 1072.3600000000001 623.27 1072.47 623.6999999999999 1072.47C624.17 1072.47 624.64 1072.34 625.06 1072.08L643.8699999999999 1060.23C645.06 1059.49 645.4199999999998 1057.92 644.6699999999998 1056.73C643.9199999999998 1055.54 642.3499999999998 1055.19 641.1699999999998 1055.93Z " fill="url(#SvgjsLinearGradient1060)" transform="matrix(1,0,0,1,-577,-979)"></path><path id="SvgjsPath1064" d="M689 1036.39L670.19 1048.23C669 1048.98 668.6400000000001 1050.55 669.3900000000001 1051.74C669.8700000000001 1052.5 670.7 1052.92 671.5400000000001 1052.92C672.0100000000001 1052.92 672.4800000000001 1052.8000000000002 672.9000000000001 1052.53L691.71 1040.69C692.9000000000001 1039.94 693.26 1038.3700000000001 692.51 1037.19C691.76 1036 690.1899999999999 1035.64 689 1036.39Z " fill="url(#SvgjsLinearGradient1065)" transform="matrix(1,0,0,1,-577,-979)"></path><path id="SvgjsPath1069" d="M641.17 1066.93L623.64 1077.97L583.8 1055.33C582.5799999999999 1054.6399999999999 581.03 1055.07 580.3299999999999 1056.29C579.6399999999999 1057.51 580.0699999999999 1059.06 581.29 1059.75L622.4499999999999 1083.13C622.8399999999999 1083.3600000000001 623.27 1083.47 623.6999999999999 1083.47C624.17 1083.47 624.64 1083.34 625.06 1083.08L643.8699999999999 1071.23C645.06 1070.49 645.4199999999998 1068.92 644.6699999999998 1067.73C643.9199999999998 1066.54 642.3499999999998 1066.19 641.1699999999998 1066.93Z " fill="url(#SvgjsLinearGradient1070)" transform="matrix(1,0,0,1,-577,-979)"></path><path id="SvgjsPath1074" d="M663.88 1022.21C663.87 1022.1 663.85 1022 663.82 1021.9000000000001C663.7900000000001 1021.8000000000001 663.7600000000001 1021.71 663.72 1021.6200000000001C663.71 1021.5900000000001 663.7 1021.5700000000002 663.69 1021.5400000000001C663.6600000000001 1021.47 663.6300000000001 1021.4100000000001 663.59 1021.34C663.57 1021.3100000000001 663.5600000000001 1021.2900000000001 663.5400000000001 1021.26C663.5300000000001 1021.24 663.5300000000001 1021.23 663.5200000000001 1021.21C663.4800000000001 1021.1500000000001 663.44 1021.1 663.4000000000001 1021.0400000000001C663.3900000000001 1021.0300000000001 663.3800000000001 1021.0200000000001 663.3700000000001 1021.0100000000001C663.3100000000002 1020.9300000000001 663.2400000000001 1020.8500000000001 663.1700000000001 1020.7800000000001C663.1600000000001 1020.7700000000001 663.1400000000001 1020.7500000000001 663.1300000000001 1020.7400000000001C663.0700000000002 1020.6800000000002 663.0000000000001 1020.6200000000001 662.9300000000001 1020.5700000000002C662.9200000000001 1020.5600000000002 662.9000000000001 1020.5400000000002 662.8800000000001 1020.5300000000002C662.7900000000001 1020.4600000000002 662.7000000000002 1020.4000000000002 662.6000000000001 1020.3500000000003L625.1500000000001 999.0700000000003L646.71 985.5000000000002L682.86 1006.0400000000002L667.64 1015.6200000000002C666.4499999999999 1016.3600000000002 666.09 1017.9300000000002 666.84 1019.1200000000002C667.59 1020.3100000000003 669.1600000000001 1020.6600000000002 670.35 1019.9200000000002L689.16 1008.0700000000002C689.92 1007.6000000000001 690.37 1006.7600000000002 690.35 1005.8700000000001C690.33 1004.9700000000001 689.84 1004.1600000000001 689.0600000000001 1003.7200000000001L647.9000000000001 980.3300000000002C647.0900000000001 979.8700000000001 646.0900000000001 979.8900000000001 645.2900000000001 980.3900000000001L618.8700000000001 997.0200000000001C618.8600000000001 997.0200000000001 618.8600000000001 997.0300000000001 618.8500000000001 997.0300000000001L605.6500000000001 1005.34C605.6400000000001 1005.35 605.6400000000001 1005.35 605.6300000000001 1005.35L579.19 1021.99C578.4300000000001 1022.47 577.98 1023.3100000000001 578 1024.2C578.02 1025.1000000000001 578.51 1025.91 579.29 1026.3500000000001L620.4499999999999 1049.7400000000002C620.8399999999999 1049.9600000000003 621.27 1050.0700000000002 621.6999999999999 1050.0700000000002C622.17 1050.0700000000002 622.64 1049.94 623.06 1049.68L641.8699999999999 1037.8400000000001C643.06 1037.0900000000001 643.4199999999998 1035.5200000000002 642.6699999999998 1034.3300000000002C641.9199999999998 1033.15 640.3499999999998 1032.7900000000002 639.1699999999998 1033.5400000000002L621.6399999999999 1044.5700000000002L585.4899999999999 1024.0300000000002L607.0499999999998 1010.4600000000002L645.5999999999998 1032.3700000000001L645.5999999999998 1061.3700000000001C645.5999999999998 1062.3000000000002 646.1099999999998 1063.15 646.9199999999998 1063.6000000000001C647.2999999999998 1063.8100000000002 647.7199999999998 1063.91 648.1399999999999 1063.91C648.6199999999999 1063.91 649.0899999999999 1063.78 649.4999999999999 1063.52L662.7199999999999 1055.2C663.4599999999999 1054.74 663.91 1053.93 663.91 1053.05L663.91 1022.5699999999999C663.91 1022.55 663.91 1022.54 663.9 1022.52C663.9 1022.4399999999999 663.9 1022.35 663.89 1022.27C663.89 1022.25 663.88 1022.23 663.88 1022.21ZM650.69 1030.89C650.69 1029.97 650.2 1029.13 649.4000000000001 1028.68L611.9300000000001 1007.3900000000001L620.2700000000001 1002.1400000000001L656.4200000000001 1022.6800000000001L653.2500000000001 1024.67C652.0700000000002 1025.42 651.7100000000002 1026.99 652.4600000000002 1028.17C652.9400000000002 1028.94 653.7700000000001 1029.3600000000001 654.6100000000001 1029.3600000000001C655.0700000000002 1029.3600000000001 655.5400000000001 1029.23 655.9600000000002 1028.97L658.8200000000002 1027.17L658.8200000000002 1051.65L650.6900000000002 1056.77Z " fill="#292033" fill-opacity="1" transform="matrix(1,0,0,1,-577,-979)"></path><path id="SvgjsPath1075" d="M686 1014.39L667.19 1026.23C666 1026.98 665.6400000000001 1028.55 666.3900000000001 1029.74C666.8700000000001 1030.5 667.7 1030.92 668.5400000000001 1030.92C669.0100000000001 1030.92 669.4800000000001 1030.8000000000002 669.9000000000001 1030.53L688.71 1018.6899999999999C689.9000000000001 1017.9399999999999 690.26 1016.3699999999999 689.51 1015.1899999999999C688.76 1013.9999999999999 687.1899999999999 1013.64 686 1014.39Z " fill="#292033" fill-opacity="1" transform="matrix(1,0,0,1,-577,-979)"></path><path id="SvgjsPath1076" d="M639.17 1043.93L621.64 1054.97L581.8 1032.33C580.5799999999999 1031.6399999999999 579.03 1032.07 578.3299999999999 1033.29C577.6399999999999 1034.51 578.0699999999999 1036.06 579.29 1036.75L620.4499999999999 1060.13C620.8399999999999 1060.3600000000001 621.27 1060.47 621.6999999999999 1060.47C622.17 1060.47 622.64 1060.34 623.06 1060.08L641.8699999999999 1048.23C643.06 1047.49 643.4199999999998 1045.92 642.6699999999998 1044.73C641.9199999999998 1043.54 640.3499999999998 1043.19 639.1699999999998 1043.93Z " fill="#292033" fill-opacity="1" transform="matrix(1,0,0,1,-577,-979)"></path><path id="SvgjsPath1077" d="M686 1024.39L667.19 1036.23C666 1036.98 665.6400000000001 1038.55 666.3900000000001 1039.74C666.8700000000001 1040.5 667.7 1040.92 668.5400000000001 1040.92C669.0100000000001 1040.92 669.4800000000001 1040.8000000000002 669.9000000000001 1040.53L688.71 1028.69C689.9000000000001 1027.94 690.26 1026.3700000000001 689.51 1025.19C688.76 1024 687.1899999999999 1023.6400000000001 686 1024.39Z " fill="#292033" fill-opacity="1" transform="matrix(1,0,0,1,-577,-979)"></path><path id="SvgjsPath1078" d="M639.17 1053.93L621.64 1064.97L581.8 1042.33C580.5799999999999 1041.6399999999999 579.03 1042.07 578.3299999999999 1043.29C577.6399999999999 1044.51 578.0699999999999 1046.06 579.29 1046.75L620.4499999999999 1070.13C620.8399999999999 1070.3600000000001 621.27 1070.47 621.6999999999999 1070.47C622.17 1070.47 622.64 1070.34 623.06 1070.08L641.8699999999999 1058.23C643.06 1057.49 643.4199999999998 1055.92 642.6699999999998 1054.73C641.9199999999998 1053.54 640.3499999999998 1053.19 639.1699999999998 1053.93Z " fill="#292033" fill-opacity="1" transform="matrix(1,0,0,1,-577,-979)"></path><path id="SvgjsPath1079" d="M686 1034.39L667.19 1046.23C666 1046.98 665.6400000000001 1048.55 666.3900000000001 1049.74C666.8700000000001 1050.5 667.7 1050.92 668.5400000000001 1050.92C669.0100000000001 1050.92 669.4800000000001 1050.8000000000002 669.9000000000001 1050.53L688.71 1038.69C689.9000000000001 1037.94 690.26 1036.3700000000001 689.51 1035.19C688.76 1034 687.1899999999999 1033.64 686 1034.39Z " fill="#292033" fill-opacity="1" transform="matrix(1,0,0,1,-577,-979)"></path><path id="SvgjsPath1080" d="M639.17 1063.93L621.64 1074.97L581.8 1052.33C580.5799999999999 1051.6399999999999 579.03 1052.07 578.3299999999999 1053.29C577.6399999999999 1054.51 578.0699999999999 1056.06 579.29 1056.75L620.4499999999999 1080.13C620.8399999999999 1080.3600000000001 621.27 1080.47 621.6999999999999 1080.47C622.17 1080.47 622.64 1080.34 623.06 1080.08L641.8699999999999 1068.23C643.06 1067.49 643.4199999999998 1065.92 642.6699999999998 1064.73C641.9199999999998 1063.54 640.3499999999998 1063.19 639.1699999999998 1063.93Z " fill="#292033" fill-opacity="1" transform="matrix(1,0,0,1,-577,-979)"></path></svg>