<svg id="SvgjsSvg1140" xmlns="http://www.w3.org/2000/svg" version="1.1" xmlns:xlink="http://www.w3.org/1999/xlink" xmlns:svgjs="http://svgjs.com/svgjs" width="55" height="39" viewBox="0 0 55 39"><title>Shape</title><desc>Created with Avocode.</desc><defs id="SvgjsDefs1141"></defs><path id="SvgjsPath1142" d="M473.4 6142C467.09999999999997 6142 462 6147.11 462 6153.42L462 6169.5C462 6175.8 467.1 6180.92 473.4 6180.92L505.47999999999996 6180.92C511.78 6180.92 516.88 6175.8 516.88 6169.5L516.88 6153.42C516.88 6147.11 511.78 6142 505.48 6142ZM482.77 6169.41C482.37 6169.599999999999 481.90999999999997 6169.3099999999995 481.90999999999997 6168.87L481.90999999999997 6154.07C481.90999999999997 6153.62 482.38 6153.33 482.78 6153.54L497.78999999999996 6161.16C498.22999999999996 6161.38 498.22999999999996 6162.03 497.77 6162.24Z " fill="#f61c0d" fill-opacity="1" transform="matrix(1,0,0,1,-462,-6142)"></path></svg>