<svg id="SvgjsSvg1111" xmlns="http://www.w3.org/2000/svg" version="1.1" xmlns:xlink="http://www.w3.org/1999/xlink" xmlns:svgjs="http://svgjs.com/svgjs" width="30" height="23" viewBox="0 0 30 23"><title>YouTube</title><desc>Created with Avocode.</desc><defs id="SvgjsDefs1112"></defs><path id="SvgjsPath1113" d="M784.9 3570.4L784.9 3561.4100000000003L793.01 3565.9200000000005ZM801.51 3556.68C800.37 3555.3999999999996 799.09 3555.3999999999996 798.5 3555.3199999999997C794.3 3554.9999999999995 788.01 3554.9999999999995 788.01 3554.9999999999995L787.99 3554.9999999999995C787.99 3554.9999999999995 781.7 3554.9999999999995 777.5 3555.3199999999997C776.91 3555.3999999999996 775.63 3555.3999999999996 774.49 3556.68C773.59 3557.6499999999996 773.3 3559.85 773.3 3559.85C773.3 3559.85 773 3562.44 773 3565.0299999999997L773 3567.4599999999996C773 3570.0499999999997 773.3 3572.6399999999994 773.3 3572.6399999999994C773.3 3572.6399999999994 773.5899999999999 3574.8399999999992 774.49 3575.8099999999995C775.63 3577.0899999999997 777.13 3577.0499999999993 777.8 3577.1799999999994C780.1999999999999 3577.419999999999 788 3577.4999999999995 788 3577.4999999999995C788 3577.4999999999995 794.3 3577.4899999999993 798.5 3577.1699999999996C799.09 3577.0899999999997 800.37 3577.0899999999997 801.51 3575.8099999999995C802.41 3574.8399999999997 802.7 3572.6399999999994 802.7 3572.6399999999994C802.7 3572.6399999999994 803 3570.0499999999993 803 3567.4599999999996L803 3565.0299999999997C803 3562.4399999999996 802.7 3559.85 802.7 3559.85C802.7 3559.85 802.4100000000001 3557.65 801.51 3556.68Z " fill="#9b9b9b" fill-opacity="1" transform="matrix(1,0,0,1,-773,-3555)"></path></svg>