<svg id="SvgjsSvg1120" xmlns="http://www.w3.org/2000/svg" version="1.1" xmlns:xlink="http://www.w3.org/1999/xlink" xmlns:svgjs="http://svgjs.com/svgjs" width="55" height="55" viewBox="0 0 55 55"><title>instagram (1)</title><desc>Created with Avocode.</desc><defs id="SvgjsDefs1121"><linearGradient id="SvgjsLinearGradient1123" gradientUnits="userSpaceOnUse" x1="379.5" y1="6188.8397612488525" x2="379.5" y2="6134.427176907414"><stop id="SvgjsStop1124" stop-opacity="1" stop-color="#e09b3d" offset="0"></stop><stop id="SvgjsStop1125" stop-opacity="1" stop-color="#c74c4d" offset="0.3"></stop><stop id="SvgjsStop1126" stop-opacity="1" stop-color="#c21975" offset="0.6"></stop><stop id="SvgjsStop1127" stop-opacity="1" stop-color="#7024c4" offset="1"></stop></linearGradient><linearGradient id="SvgjsLinearGradient1129" gradientUnits="userSpaceOnUse" x1="379" y1="6187.907546845453" x2="379" y2="6134.355269039023"><stop id="SvgjsStop1130" stop-opacity="1" stop-color="#e09b3d" offset="0"></stop><stop id="SvgjsStop1131" stop-opacity="1" stop-color="#c74c4d" offset="0.3"></stop><stop id="SvgjsStop1132" stop-opacity="1" stop-color="#c21975" offset="0.6"></stop><stop id="SvgjsStop1133" stop-opacity="1" stop-color="#7024c4" offset="1"></stop></linearGradient><linearGradient id="SvgjsLinearGradient1135" gradientUnits="userSpaceOnUse" x1="393.5" y1="6190.070737064043" x2="393.5" y2="6134.197335207473"><stop id="SvgjsStop1136" stop-opacity="1" stop-color="#e09b3d" offset="0"></stop><stop id="SvgjsStop1137" stop-opacity="1" stop-color="#c74c4d" offset="0.3"></stop><stop id="SvgjsStop1138" stop-opacity="1" stop-color="#c21975" offset="0.6"></stop><stop id="SvgjsStop1139" stop-opacity="1" stop-color="#7024c4" offset="1"></stop></linearGradient></defs><path id="SvgjsPath1122" d="M368.36 6134C359.34000000000003 6134 352 6141.34 352 6150.36L352 6172.549999999999C352 6181.57 359.34 6188.9 368.36 6188.9L390.55 6188.9C399.57 6188.9 406.90000000000003 6181.57 406.90000000000003 6172.549999999999L406.90000000000003 6150.36C406.90000000000003 6141.339999999999 399.57000000000005 6134 390.55 6134ZM390.55 6183.38L368.36 6183.38C362.37 6183.38 357.52000000000004 6178.53 357.52000000000004 6172.55L357.52000000000004 6150.360000000001C357.52000000000004 6144.370000000001 362.37000000000006 6139.52 368.36 6139.52L390.55 6139.52C396.53000000000003 6139.52 401.38 6144.370000000001 401.38 6150.360000000001L401.38 6172.55C401.38 6178.53 396.53 6183.38 390.55 6183.38Z " fill="url(#SvgjsLinearGradient1123)" transform="matrix(1,0,0,1,-352,-6134)"></path><path id="SvgjsPath1128" d="M365 6161.2C365 6169.03 371.37 6175.4 379.2 6175.4C387.03 6175.4 393.4 6169.03 393.4 6161.2C393.4 6153.37 387.03 6147 379.2 6147C371.37 6147 365 6153.37 365 6161.2ZM370.52 6161.2C370.52 6156.41 374.40999999999997 6152.5199999999995 379.2 6152.5199999999995C383.99 6152.5199999999995 387.88 6156.41 387.88 6161.2C387.88 6165.99 383.99 6169.88 379.2 6169.88C374.40999999999997 6169.88 370.52 6165.99 370.52 6161.2Z " fill="url(#SvgjsLinearGradient1129)" transform="matrix(1,0,0,1,-352,-6134)"></path><path id="SvgjsPath1134" d="M390 6147.5C390 6145.567 391.567 6144 393.5 6144C395.433 6144 397 6145.567 397 6147.5C397 6149.433 395.433 6151 393.5 6151C391.567 6151 390 6149.433 390 6147.5Z " fill="url(#SvgjsLinearGradient1135)" transform="matrix(1,0,0,1,-352,-6134)"></path></svg>