<svg id="SvgjsSvg1000" xmlns="http://www.w3.org/2000/svg" version="1.1" xmlns:xlink="http://www.w3.org/1999/xlink" xmlns:svgjs="http://svgjs.com/svgjs" width="116" height="88" viewBox="0 0 116 88"><title>transport</title><desc>Created with Avocode.</desc><defs id="SvgjsDefs1001"><linearGradient id="SvgjsLinearGradient1008" gradientUnits="userSpaceOnUse" x1="239.99817879409161" y1="988.0013071278634" x2="239.99817879409161" y2="1045.0013071278634"><stop id="SvgjsStop1009" stop-opacity="1" stop-color="#ff8f53" offset="0"></stop><stop id="SvgjsStop1010" stop-opacity="1" stop-color="#fd61a3" offset="0.49"></stop><stop id="SvgjsStop1011" stop-opacity="1" stop-color="#a15bff" offset="1"></stop></linearGradient><linearGradient id="SvgjsLinearGradient1013" gradientUnits="userSpaceOnUse" x1="227" y1="1058" x2="227" y2="1062"><stop id="SvgjsStop1014" stop-opacity="1" stop-color="#ff8f53" offset="0"></stop><stop id="SvgjsStop1015" stop-opacity="1" stop-color="#fd61a3" offset="0.49"></stop><stop id="SvgjsStop1016" stop-opacity="1" stop-color="#a15bff" offset="1"></stop></linearGradient><linearGradient id="SvgjsLinearGradient1018" gradientUnits="userSpaceOnUse" x1="280.5" y1="1058" x2="280.5" y2="1062"><stop id="SvgjsStop1019" stop-opacity="1" stop-color="#ff8f53" offset="0"></stop><stop id="SvgjsStop1020" stop-opacity="1" stop-color="#fd61a3" offset="0.49"></stop><stop id="SvgjsStop1021" stop-opacity="1" stop-color="#a15bff" offset="1"></stop></linearGradient><linearGradient id="SvgjsLinearGradient1023" gradientUnits="userSpaceOnUse" x1="219.5" y1="1069" x2="219.5" y2="1073"><stop id="SvgjsStop1024" stop-opacity="1" stop-color="#ff8f53" offset="0"></stop><stop id="SvgjsStop1025" stop-opacity="1" stop-color="#fd61a3" offset="0.49"></stop><stop id="SvgjsStop1026" stop-opacity="1" stop-color="#a15bff" offset="1"></stop></linearGradient><linearGradient id="SvgjsLinearGradient1028" gradientUnits="userSpaceOnUse" x1="191.50203270843593" y1="1007.002032708436" x2="191.50203270843593" y2="1018.002032708436"><stop id="SvgjsStop1029" stop-opacity="1" stop-color="#ff8f53" offset="0"></stop><stop id="SvgjsStop1030" stop-opacity="1" stop-color="#fd61a3" offset="0.49"></stop><stop id="SvgjsStop1031" stop-opacity="1" stop-color="#a15bff" offset="1"></stop></linearGradient></defs><path id="SvgjsPath1007" d="M293.48 994.24C292.28000000000003 991.65 290.19 989.76 287.44 988.78C282.86 987.14 276.66 988.1 269.5 991.5699999999999C269.46 991.5899999999999 269.43 991.6099999999999 269.39 991.6299999999999L241.79 1006.9199999999998L215.07999999999998 992.4399999999998C214.45999999999998 992.0999999999998 213.70999999999998 992.0799999999998 213.07 992.3799999999999L201.23 997.9299999999998C200.51999999999998 998.2599999999999 200.03 998.9499999999998 199.95 999.7299999999998C199.85999999999999 1000.5099999999998 200.19 1001.2799999999997 200.82 1001.7599999999998L221.95999999999998 1017.9099999999997L203.82 1027.9499999999998L194.38 1022.8399999999998C193.76 1022.4999999999998 193.01 1022.4799999999998 192.37 1022.7799999999999L184.29 1026.56C183.57999999999998 1026.8999999999999 183.1 1027.58 183.01 1028.36C182.92999999999998 1029.1499999999999 183.26 1029.9199999999998 183.88 1030.3899999999999L201.07 1043.53C202.7 1044.77 204.64 1045.3999999999999 206.6 1045.3999999999999C207.91 1045.3999999999999 209.23 1045.12 210.47 1044.54L219.29 1040.3999999999999L289.55 1006.6399999999999C291.66 1005.6499999999999 293.3 1004.0699999999998 294.18 1002.1899999999998C295.14 1000.1099999999998 295.12 997.7699999999999 294.12 995.6099999999998ZM213.94 996.94L245.7 1014.1500000000001L239.35 1017.1200000000001L231.56 1011.3700000000001C230.57 1010.6300000000001 229.17000000000002 1010.8500000000001 228.43 1011.8500000000001C227.70000000000002 1012.8500000000001 227.91 1014.2600000000001 228.91 1014.9900000000001L234.73 1019.2900000000001L232.51999999999998 1020.33L206.48 1000.4300000000001ZM217.38 1036.33L208.57999999999998 1040.46C206.99999999999997 1041.2 205.17 1041 203.77999999999997 1039.94L189.54999999999998 1029.0700000000002L193.23999999999998 1027.3300000000002L202.76999999999998 1032.5000000000002C203.43999999999997 1032.8600000000001 204.24999999999997 1032.8600000000001 204.92 1032.4900000000002L225.85 1020.8900000000002L230.88 1024.7300000000002C231.28 1025.0300000000002 231.76 1025.1900000000003 232.24 1025.1900000000003C232.56 1025.1900000000003 232.88 1025.1200000000003 233.19 1024.9800000000002L251.63 1016.3300000000003C252.4 1015.9700000000003 252.9 1015.2100000000003 252.92 1014.3600000000002C252.95 1013.5100000000002 252.48999999999998 1012.7200000000003 251.75 1012.3100000000003L246.48 1009.4600000000003L271.5 995.6000000000003C277.18 992.8500000000003 282.12 991.9000000000002 285.49 992.8800000000002L277.23 997.0300000000002C276.12 997.5800000000002 275.68 998.9300000000002 276.23 1000.0400000000002C276.62 1000.8300000000002 277.41 1001.2900000000002 278.23 1001.2900000000002C278.57 1001.2900000000002 278.91 1001.2100000000002 279.23 1001.0500000000002L289.33000000000004 995.9700000000001C289.36 996.0300000000001 289.39000000000004 996.0800000000002 289.42 996.1400000000001L290.06 997.5100000000001C291.16 999.8900000000001 289.46 1001.7200000000001 287.64 1002.57Z " fill="url(#SvgjsLinearGradient1008)" transform="matrix(1,0,0,1,-179,-986)"></path><path id="SvgjsPath1012" d="M264.87 1058L189.24 1058C188 1058 187 1059.01 187 1060.25C187 1061.49 188 1062.5 189.24 1062.5L264.87 1062.5C266.11 1062.5 267.11 1061.49 267.11 1060.25C267.11 1059.01 266.11 1058 264.87 1058Z " fill="url(#SvgjsLinearGradient1013)" transform="matrix(1,0,0,1,-179,-986)"></path><path id="SvgjsPath1017" d="M284.28 1058L276.23999999999995 1058C274.99999999999994 1058 273.99999999999994 1059.01 273.99999999999994 1060.25C273.99999999999994 1061.49 274.99999999999994 1062.5 276.23999999999995 1062.5L284.28 1062.5C285.52 1062.5 286.52 1061.49 286.52 1060.25C286.52 1059.01 285.52 1058 284.28 1058Z " fill="url(#SvgjsLinearGradient1018)" transform="matrix(1,0,0,1,-179,-986)"></path><path id="SvgjsPath1022" d="M238.18 1069L201.24 1069C200 1069 199 1070.01 199 1071.25C199 1072.49 200 1073.5 201.24 1073.5L238.18 1073.5C239.41 1073.5 240.41 1072.49 240.41 1071.25C240.41 1070.01 239.41 1069 238.18 1069Z " fill="url(#SvgjsLinearGradient1023)" transform="matrix(1,0,0,1,-179,-986)"></path><path id="SvgjsPath1027" d="M201.14 1008.4C200.67 1007.25 199.36999999999998 1006.6999999999999 198.22 1007.17L183.4 1013.2299999999999C182.25 1013.6999999999999 181.70000000000002 1015.0099999999999 182.17000000000002 1016.1599999999999C182.52 1017.0299999999999 183.36 1017.5599999999998 184.24 1017.5599999999998C184.52 1017.5599999999998 184.81 1017.5099999999999 185.08 1017.3899999999999L199.91000000000003 1011.3299999999999C201.05 1010.8699999999999 201.60000000000002 1009.55 201.14000000000001 1008.4Z " fill="url(#SvgjsLinearGradient1028)" transform="matrix(1,0,0,1,-179,-986)"></path><path id="SvgjsPath1032" d="M290.48 992.24C289.28000000000003 989.65 287.19 987.76 284.44 986.78C279.86 985.14 273.66 986.1 266.5 989.5699999999999C266.46 989.5899999999999 266.43 989.6099999999999 266.39 989.6299999999999L238.79 1004.9199999999998L212.07999999999998 990.4399999999998C211.45999999999998 990.0999999999998 210.70999999999998 990.0799999999998 210.07 990.3799999999999L198.23 995.9299999999998C197.51999999999998 996.2599999999999 197.03 996.9499999999998 196.95 997.7299999999998C196.85999999999999 998.5099999999998 197.19 999.2799999999997 197.82 999.7599999999998L218.95999999999998 1015.9099999999997L200.82 1025.9499999999998L191.38 1020.8399999999998C190.76 1020.4999999999998 190.01 1020.4799999999998 189.37 1020.7799999999999L181.29 1024.56C180.57999999999998 1024.8999999999999 180.1 1025.58 180.01 1026.36C179.92999999999998 1027.1499999999999 180.26 1027.9199999999998 180.88 1028.3899999999999L198.07 1041.53C199.7 1042.77 201.64 1043.3999999999999 203.6 1043.3999999999999C204.91 1043.3999999999999 206.23 1043.12 207.47 1042.54L216.29 1038.3999999999999L286.55 1004.6399999999999C288.66 1003.6499999999999 290.3 1002.0699999999998 291.18 1000.1899999999998C292.14 998.1099999999998 292.12 995.7699999999999 291.12 993.6099999999998ZM210.94 994.94L242.7 1012.1500000000001L236.35 1015.1200000000001L228.56 1009.3700000000001C227.57 1008.6300000000001 226.17000000000002 1008.8500000000001 225.43 1009.8500000000001C224.70000000000002 1010.8500000000001 224.91 1012.2600000000001 225.91 1012.9900000000001L231.73 1017.2900000000001L229.51999999999998 1018.33L203.48 998.4300000000001ZM214.38 1034.33L205.57999999999998 1038.46C203.99999999999997 1039.2 202.17 1039 200.77999999999997 1037.94L186.54999999999998 1027.0700000000002L190.23999999999998 1025.3300000000002L199.76999999999998 1030.5000000000002C200.43999999999997 1030.8600000000001 201.24999999999997 1030.8600000000001 201.92 1030.4900000000002L222.85 1018.8900000000002L227.88 1022.7300000000002C228.28 1023.0300000000002 228.76 1023.1900000000003 229.24 1023.1900000000003C229.56 1023.1900000000003 229.88 1023.1200000000002 230.19 1022.9800000000002L248.63 1014.3300000000003C249.4 1013.9700000000003 249.9 1013.2100000000003 249.92 1012.3600000000002C249.95 1011.5100000000002 249.48999999999998 1010.7200000000003 248.75 1010.3100000000003L243.48 1007.4600000000003L268.5 993.6000000000003C274.18 990.8500000000003 279.12 989.9000000000002 282.49 990.8800000000002L274.23 995.0300000000002C273.12 995.5800000000002 272.68 996.9300000000002 273.23 998.0400000000002C273.62 998.8300000000002 274.41 999.2900000000002 275.23 999.2900000000002C275.57 999.2900000000002 275.91 999.2100000000002 276.23 999.0500000000002L286.33000000000004 993.9700000000001C286.36 994.0300000000001 286.39000000000004 994.0800000000002 286.42 994.1400000000001L287.06 995.5100000000001C288.16 997.8900000000001 286.46 999.7200000000001 284.64 1000.57Z " fill="#292033" fill-opacity="1" transform="matrix(1,0,0,1,-179,-986)"></path><path id="SvgjsPath1033" d="M262.87 1056L187.24 1056C186 1056 185 1057.01 185 1058.25C185 1059.49 186 1060.5 187.24 1060.5L262.87 1060.5C264.11 1060.5 265.11 1059.49 265.11 1058.25C265.11 1057.01 264.11 1056 262.87 1056Z " fill="#292033" fill-opacity="1" transform="matrix(1,0,0,1,-179,-986)"></path><path id="SvgjsPath1034" d="M282.28 1056L274.23999999999995 1056C272.99999999999994 1056 271.99999999999994 1057.01 271.99999999999994 1058.25C271.99999999999994 1059.49 272.99999999999994 1060.5 274.23999999999995 1060.5L282.28 1060.5C283.52 1060.5 284.52 1059.49 284.52 1058.25C284.52 1057.01 283.52 1056 282.28 1056Z " fill="#292033" fill-opacity="1" transform="matrix(1,0,0,1,-179,-986)"></path><path id="SvgjsPath1035" d="M236.18 1067L199.24 1067C198 1067 197 1068.01 197 1069.25C197 1070.49 198 1071.5 199.24 1071.5L236.18 1071.5C237.41 1071.5 238.41 1070.49 238.41 1069.25C238.41 1068.01 237.41 1067 236.18 1067Z " fill="#292033" fill-opacity="1" transform="matrix(1,0,0,1,-179,-986)"></path><path id="SvgjsPath1036" d="M199.14 1006.4C198.67 1005.25 197.36999999999998 1004.6999999999999 196.22 1005.17L181.4 1011.2299999999999C180.25 1011.6999999999999 179.70000000000002 1013.0099999999999 180.17000000000002 1014.1599999999999C180.52 1015.0299999999999 181.36 1015.5599999999998 182.24 1015.5599999999998C182.52 1015.5599999999998 182.81 1015.5099999999999 183.08 1015.3899999999999L197.91000000000003 1009.3299999999999C199.05 1008.8699999999999 199.60000000000002 1007.55 199.14000000000001 1006.4Z " fill="#292033" fill-opacity="1" transform="matrix(1,0,0,1,-179,-986)"></path></svg>