<svg id="SvgjsSvg1106" xmlns="http://www.w3.org/2000/svg" version="1.1" xmlns:xlink="http://www.w3.org/1999/xlink" xmlns:svgjs="http://svgjs.com/svgjs" width="30" height="30" viewBox="0 0 30 30"><title>Group</title><desc>Created with Avocode.</desc><defs id="SvgjsDefs1107"></defs><path id="SvgjsPath1108" d="M715.23 3551C710.69 3551 707 3554.69 707 3559.23L707 3572.6C707 3577.14 710.69 3580.83 715.23 3580.83L728.6 3580.83C733.14 3580.83 736.83 3577.14 736.83 3572.6L736.83 3559.23C736.83 3554.69 733.14 3551 728.6 3551ZM728.6 3578.19L715.23 3578.19C712.15 3578.19 709.65 3575.68 709.65 3572.6L709.65 3559.23C709.65 3556.15 712.15 3553.65 715.23 3553.65L728.6 3553.65C731.6800000000001 3553.65 734.19 3556.15 734.19 3559.23L734.19 3572.6C734.19 3575.68 731.6800000000001 3578.19 728.6 3578.19Z " fill="#9b9b9b" fill-opacity="1" transform="matrix(1,0,0,1,-707,-3551)"></path><path id="SvgjsPath1109" d="M714 3565.69C714 3569.93 717.45 3573.37 721.69 3573.37C725.9300000000001 3573.37 729.3800000000001 3569.93 729.3800000000001 3565.69C729.3800000000001 3561.4500000000003 725.9300000000001 3558 721.69 3558C717.45 3558 714 3561.45 714 3565.69ZM716.65 3565.69C716.65 3562.91 718.91 3560.65 721.6899999999999 3560.65C724.4699999999999 3560.65 726.7299999999999 3562.9100000000003 726.7299999999999 3565.69C726.7299999999999 3568.4700000000003 724.4699999999999 3570.73 721.6899999999999 3570.73C718.91 3570.73 716.65 3568.47 716.65 3565.69Z " fill="#9b9b9b" fill-opacity="1" transform="matrix(1,0,0,1,-707,-3551)"></path><path id="SvgjsPath1110" d="M729.94 3556C729.4300000000001 3556 728.9300000000001 3556.21 728.57 3556.57C728.21 3556.9300000000003 728 3557.4300000000003 728 3557.94C728 3558.4500000000003 728.21 3558.9500000000003 728.57 3559.31C728.9300000000001 3559.67 729.4300000000001 3559.88 729.94 3559.88C730.45 3559.88 730.95 3559.67 731.3100000000001 3559.31C731.6800000000001 3558.95 731.8800000000001 3558.45 731.8800000000001 3557.94C731.8800000000001 3557.43 731.6800000000001 3556.93 731.3100000000001 3556.57C730.95 3556.21 730.45 3556 729.94 3556Z " fill="#9b9b9b" fill-opacity="1" transform="matrix(1,0,0,1,-707,-3551)"></path></svg>