<?xml version="1.0" encoding="UTF-8"?>
<svg width="370px" height="161px" viewBox="0 0 370 161" version="1.1" xmlns="http://www.w3.org/2000/svg" xmlns:xlink="http://www.w3.org/1999/xlink">
    <!-- Generator: Sketch 40.3 (33839) - http://www.bohemiancoding.com/sketch -->
    <title>Combined Shape</title>
    <desc>Created with Sketch.</desc>
    <defs>
        <rect id="path-1" x="0" y="0" width="370" height="161"></rect>
    </defs>
    <g id="Page-1" stroke="none" stroke-width="1" fill="none" fill-rule="evenodd">
        <g id="3-days-design" transform="translate(-106.000000, -5235.000000)">
            <g id="Group-27" transform="translate(61.000000, 5122.000000)">
                <g id="Group-18" transform="translate(45.000000, 113.000000)">
                    <g id="Combined-Shape">
                        <mask id="mask-2" fill="white">
                            <use xlink:href="#path-1"></use>
                        </mask>
                        <g id="Mask"></g>
                        <path d="M174.158903,-34.8655858 L-34.8410968,160.134414 L-35.2066826,160.475511 L-34.524489,161.206683 L-34.1589032,160.865586 L174.841097,-34.1344142 L175.206683,-34.475511 L174.524489,-35.2066826 L174.158903,-34.8655858 Z M164.158903,-34.8655858 L-44.8410968,160.134414 L-45.2066826,160.475511 L-44.524489,161.206683 L-44.1589032,160.865586 L164.841097,-34.1344142 L165.206683,-34.475511 L164.524489,-35.2066826 L164.158903,-34.8655858 Z M154.158903,-34.8655858 L-54.8410968,160.134414 L-55.2066826,160.475511 L-54.524489,161.206683 L-54.1589032,160.865586 L154.841097,-34.1344142 L155.206683,-34.475511 L154.524489,-35.2066826 L154.158903,-34.8655858 Z M144.158903,-34.8655858 L-64.8410968,160.134414 L-65.2066826,160.475511 L-64.524489,161.206683 L-64.1589032,160.865586 L144.841097,-34.1344142 L145.206683,-34.475511 L144.524489,-35.2066826 L144.158903,-34.8655858 Z M134.158903,-34.8655858 L-74.8410968,160.134414 L-75.2066826,160.475511 L-74.524489,161.206683 L-74.1589032,160.865586 L134.841097,-34.1344142 L135.206683,-34.475511 L134.524489,-35.2066826 L134.158903,-34.8655858 Z M124.158903,-34.8655858 L-84.8410968,160.134414 L-85.2066826,160.475511 L-84.524489,161.206683 L-84.1589032,160.865586 L124.841097,-34.1344142 L125.206683,-34.475511 L124.524489,-35.2066826 L124.158903,-34.8655858 Z M114.158903,-34.8655858 L-94.8410968,160.134414 L-95.2066826,160.475511 L-94.524489,161.206683 L-94.1589032,160.865586 L114.841097,-34.1344142 L115.206683,-34.475511 L114.524489,-35.2066826 L114.158903,-34.8655858 Z M104.158903,-34.8655858 L-104.841097,160.134414 L-105.206683,160.475511 L-104.524489,161.206683 L-104.158903,160.865586 L104.841097,-34.1344142 L105.206683,-34.475511 L104.524489,-35.2066826 L104.158903,-34.8655858 Z M94.1589032,-34.8655858 L-114.841097,160.134414 L-115.206683,160.475511 L-114.524489,161.206683 L-114.158903,160.865586 L94.8410968,-34.1344142 L95.2066826,-34.475511 L94.524489,-35.2066826 L94.1589032,-34.8655858 Z M84.1589032,-34.8655858 L-124.841097,160.134414 L-125.206683,160.475511 L-124.524489,161.206683 L-124.158903,160.865586 L84.8410968,-34.1344142 L85.2066826,-34.475511 L84.524489,-35.2066826 L84.1589032,-34.8655858 Z M74.1589032,-34.8655858 L-134.841097,160.134414 L-135.206683,160.475511 L-134.524489,161.206683 L-134.158903,160.865586 L74.8410968,-34.1344142 L75.2066826,-34.475511 L74.524489,-35.2066826 L74.1589032,-34.8655858 Z M64.1589032,-34.8655858 L-144.841097,160.134414 L-145.206683,160.475511 L-144.524489,161.206683 L-144.158903,160.865586 L64.8410968,-34.1344142 L65.2066826,-34.475511 L64.524489,-35.2066826 L64.1589032,-34.8655858 Z M54.1589032,-34.8655858 L-154.841097,160.134414 L-155.206683,160.475511 L-154.524489,161.206683 L-154.158903,160.865586 L54.8410968,-34.1344142 L55.2066826,-34.475511 L54.524489,-35.2066826 L54.1589032,-34.8655858 Z M304.158903,-34.8655858 L95.1589032,160.134414 L94.7933174,160.475511 L95.475511,161.206683 L95.8410968,160.865586 L304.841097,-34.1344142 L305.206683,-34.475511 L304.524489,-35.2066826 L304.158903,-34.8655858 Z M294.158903,-34.8655858 L85.1589032,160.134414 L84.7933174,160.475511 L85.475511,161.206683 L85.8410968,160.865586 L294.841097,-34.1344142 L295.206683,-34.475511 L294.524489,-35.2066826 L294.158903,-34.8655858 Z M284.158903,-34.8655858 L75.1589032,160.134414 L74.7933174,160.475511 L75.475511,161.206683 L75.8410968,160.865586 L284.841097,-34.1344142 L285.206683,-34.475511 L284.524489,-35.2066826 L284.158903,-34.8655858 Z M274.158903,-34.8655858 L65.1589032,160.134414 L64.7933174,160.475511 L65.475511,161.206683 L65.8410968,160.865586 L274.841097,-34.1344142 L275.206683,-34.475511 L274.524489,-35.2066826 L274.158903,-34.8655858 Z M264.158903,-34.8655858 L55.1589032,160.134414 L54.7933174,160.475511 L55.475511,161.206683 L55.8410968,160.865586 L264.841097,-34.1344142 L265.206683,-34.475511 L264.524489,-35.2066826 L264.158903,-34.8655858 Z M254.158903,-34.8655858 L45.1589032,160.134414 L44.7933174,160.475511 L45.475511,161.206683 L45.8410968,160.865586 L254.841097,-34.1344142 L255.206683,-34.475511 L254.524489,-35.2066826 L254.158903,-34.8655858 Z M244.158903,-34.8655858 L35.1589032,160.134414 L34.7933174,160.475511 L35.475511,161.206683 L35.8410968,160.865586 L244.841097,-34.1344142 L245.206683,-34.475511 L244.524489,-35.2066826 L244.158903,-34.8655858 Z M234.158903,-34.8655858 L25.1589032,160.134414 L24.7933174,160.475511 L25.475511,161.206683 L25.8410968,160.865586 L234.841097,-34.1344142 L235.206683,-34.475511 L234.524489,-35.2066826 L234.158903,-34.8655858 Z M224.158903,-34.8655858 L15.1589032,160.134414 L14.7933174,160.475511 L15.475511,161.206683 L15.8410968,160.865586 L224.841097,-34.1344142 L225.206683,-34.475511 L224.524489,-35.2066826 L224.158903,-34.8655858 Z M214.158903,-34.8655858 L5.1589032,160.134414 L4.79331741,160.475511 L5.475511,161.206683 L5.8410968,160.865586 L214.841097,-34.1344142 L215.206683,-34.475511 L214.524489,-35.2066826 L214.158903,-34.8655858 Z M204.158903,-34.8655858 L-4.8410968,160.134414 L-5.20668259,160.475511 L-4.524489,161.206683 L-4.1589032,160.865586 L204.841097,-34.1344142 L205.206683,-34.475511 L204.524489,-35.2066826 L204.158903,-34.8655858 Z M194.158903,-34.8655858 L-14.8410968,160.134414 L-15.2066826,160.475511 L-14.524489,161.206683 L-14.1589032,160.865586 L194.841097,-34.1344142 L195.206683,-34.475511 L194.524489,-35.2066826 L194.158903,-34.8655858 Z M184.158903,-34.8655858 L-24.8410968,160.134414 L-25.2066826,160.475511 L-24.524489,161.206683 L-24.1589032,160.865586 L184.841097,-34.1344142 L185.206683,-34.475511 L184.524489,-35.2066826 L184.158903,-34.8655858 Z M434.158903,-34.8655858 L225.158903,160.134414 L224.793317,160.475511 L225.475511,161.206683 L225.841097,160.865586 L434.841097,-34.1344142 L435.206683,-34.475511 L434.524489,-35.2066826 L434.158903,-34.8655858 Z M424.158903,-34.8655858 L215.158903,160.134414 L214.793317,160.475511 L215.475511,161.206683 L215.841097,160.865586 L424.841097,-34.1344142 L425.206683,-34.475511 L424.524489,-35.2066826 L424.158903,-34.8655858 Z M414.158903,-34.8655858 L205.158903,160.134414 L204.793317,160.475511 L205.475511,161.206683 L205.841097,160.865586 L414.841097,-34.1344142 L415.206683,-34.475511 L414.524489,-35.2066826 L414.158903,-34.8655858 Z M404.158903,-34.8655858 L195.158903,160.134414 L194.793317,160.475511 L195.475511,161.206683 L195.841097,160.865586 L404.841097,-34.1344142 L405.206683,-34.475511 L404.524489,-35.2066826 L404.158903,-34.8655858 Z M394.158903,-34.8655858 L185.158903,160.134414 L184.793317,160.475511 L185.475511,161.206683 L185.841097,160.865586 L394.841097,-34.1344142 L395.206683,-34.475511 L394.524489,-35.2066826 L394.158903,-34.8655858 Z M384.158903,-34.8655858 L175.158903,160.134414 L174.793317,160.475511 L175.475511,161.206683 L175.841097,160.865586 L384.841097,-34.1344142 L385.206683,-34.475511 L384.524489,-35.2066826 L384.158903,-34.8655858 Z M374.158903,-34.8655858 L165.158903,160.134414 L164.793317,160.475511 L165.475511,161.206683 L165.841097,160.865586 L374.841097,-34.1344142 L375.206683,-34.475511 L374.524489,-35.2066826 L374.158903,-34.8655858 Z M364.158903,-34.8655858 L155.158903,160.134414 L154.793317,160.475511 L155.475511,161.206683 L155.841097,160.865586 L364.841097,-34.1344142 L365.206683,-34.475511 L364.524489,-35.2066826 L364.158903,-34.8655858 Z M354.158903,-34.8655858 L145.158903,160.134414 L144.793317,160.475511 L145.475511,161.206683 L145.841097,160.865586 L354.841097,-34.1344142 L355.206683,-34.475511 L354.524489,-35.2066826 L354.158903,-34.8655858 Z M344.158903,-34.8655858 L135.158903,160.134414 L134.793317,160.475511 L135.475511,161.206683 L135.841097,160.865586 L344.841097,-34.1344142 L345.206683,-34.475511 L344.524489,-35.2066826 L344.158903,-34.8655858 Z M334.158903,-34.8655858 L125.158903,160.134414 L124.793317,160.475511 L125.475511,161.206683 L125.841097,160.865586 L334.841097,-34.1344142 L335.206683,-34.475511 L334.524489,-35.2066826 L334.158903,-34.8655858 Z M324.158903,-34.8655858 L115.158903,160.134414 L114.793317,160.475511 L115.475511,161.206683 L115.841097,160.865586 L324.841097,-34.1344142 L325.206683,-34.475511 L324.524489,-35.2066826 L324.158903,-34.8655858 Z M314.158903,-34.8655858 L105.158903,160.134414 L104.793317,160.475511 L105.475511,161.206683 L105.841097,160.865586 L314.841097,-34.1344142 L315.206683,-34.475511 L314.524489,-35.2066826 L314.158903,-34.8655858 Z M564.158903,-34.8655858 L355.158903,160.134414 L354.793317,160.475511 L355.475511,161.206683 L355.841097,160.865586 L564.841097,-34.1344142 L565.206683,-34.475511 L564.524489,-35.2066826 L564.158903,-34.8655858 Z M554.158903,-34.8655858 L345.158903,160.134414 L344.793317,160.475511 L345.475511,161.206683 L345.841097,160.865586 L554.841097,-34.1344142 L555.206683,-34.475511 L554.524489,-35.2066826 L554.158903,-34.8655858 Z M544.158903,-34.8655858 L335.158903,160.134414 L334.793317,160.475511 L335.475511,161.206683 L335.841097,160.865586 L544.841097,-34.1344142 L545.206683,-34.475511 L544.524489,-35.2066826 L544.158903,-34.8655858 Z M534.158903,-34.8655858 L325.158903,160.134414 L324.793317,160.475511 L325.475511,161.206683 L325.841097,160.865586 L534.841097,-34.1344142 L535.206683,-34.475511 L534.524489,-35.2066826 L534.158903,-34.8655858 Z M524.158903,-34.8655858 L315.158903,160.134414 L314.793317,160.475511 L315.475511,161.206683 L315.841097,160.865586 L524.841097,-34.1344142 L525.206683,-34.475511 L524.524489,-35.2066826 L524.158903,-34.8655858 Z M514.158903,-34.8655858 L305.158903,160.134414 L304.793317,160.475511 L305.475511,161.206683 L305.841097,160.865586 L514.841097,-34.1344142 L515.206683,-34.475511 L514.524489,-35.2066826 L514.158903,-34.8655858 Z M504.158903,-34.8655858 L295.158903,160.134414 L294.793317,160.475511 L295.475511,161.206683 L295.841097,160.865586 L504.841097,-34.1344142 L505.206683,-34.475511 L504.524489,-35.2066826 L504.158903,-34.8655858 Z M494.158903,-34.8655858 L285.158903,160.134414 L284.793317,160.475511 L285.475511,161.206683 L285.841097,160.865586 L494.841097,-34.1344142 L495.206683,-34.475511 L494.524489,-35.2066826 L494.158903,-34.8655858 Z M484.158903,-34.8655858 L275.158903,160.134414 L274.793317,160.475511 L275.475511,161.206683 L275.841097,160.865586 L484.841097,-34.1344142 L485.206683,-34.475511 L484.524489,-35.2066826 L484.158903,-34.8655858 Z M474.158903,-34.8655858 L265.158903,160.134414 L264.793317,160.475511 L265.475511,161.206683 L265.841097,160.865586 L474.841097,-34.1344142 L475.206683,-34.475511 L474.524489,-35.2066826 L474.158903,-34.8655858 Z M464.158903,-34.8655858 L255.158903,160.134414 L254.793317,160.475511 L255.475511,161.206683 L255.841097,160.865586 L464.841097,-34.1344142 L465.206683,-34.475511 L464.524489,-35.2066826 L464.158903,-34.8655858 Z M454.158903,-34.8655858 L245.158903,160.134414 L244.793317,160.475511 L245.475511,161.206683 L245.841097,160.865586 L454.841097,-34.1344142 L455.206683,-34.475511 L454.524489,-35.2066826 L454.158903,-34.8655858 Z M444.158903,-34.8655858 L235.158903,160.134414 L234.793317,160.475511 L235.475511,161.206683 L235.841097,160.865586 L444.841097,-34.1344142 L445.206683,-34.475511 L444.524489,-35.2066826 L444.158903,-34.8655858 Z" stroke="#FF6E6E" stroke-linecap="square" mask="url(#mask-2)"></path>
                    </g>
                </g>
            </g>
        </g>
    </g>
</svg>