
<svg width="40px" height="1388px" viewBox="10 59 40 1388" version="1.1" xmlns="http://www.w3.org/2000/svg" xmlns:xlink="http://www.w3.org/1999/xlink">
    <!-- Generator: Sketch 39.1 (31720) - http://www.bohemiancoding.com/sketch -->
    <desc>Created with Sketch.</desc>
    <defs>
        <linearGradient x1="50%" y1="0.64971301%" x2="50%" y2="98.2242506%" id="linearGradient-1">
            <stop stop-color="#FF8F53" offset="0%"></stop>
            <stop stop-color="#FD61A3" offset="50.7015306%"></stop>
            <stop stop-color="#A15BFF" offset="100%"></stop>
        </linearGradient>
    </defs>
    <path d="M32,744.849973 L32,758.150027 C35.4233605,758.844933 38,761.871563 38,765.5 C38,769.128437 35.4233605,772.155067 32,772.849973 L32,786.150027 C35.4233605,786.844933 38,789.871563 38,793.5 C38,797.128437 35.4233605,800.155067 32,800.849973 L32,814.150027 C35.4233605,814.844933 38,817.871563 38,821.5 C38,825.128437 35.4233605,828.155067 32,828.849973 L32,860.150027 C35.4233605,860.844933 38,863.871563 38,867.5 C38,871.128437 35.4233605,874.155067 32,874.849973 L32,888.150027 C35.4233605,888.844933 38,891.871563 38,895.5 C38,899.128437 35.4233605,902.155067 32,902.849973 L32,916.150027 C35.4233605,916.844933 38,919.871563 38,923.5 C38,927.128437 35.4233605,930.155067 32,930.849973 L32,988.09875 C42.1066454,989.102199 50,997.629304 50,1008 C50,1018.3707 42.1066454,1026.8978 32,1027.90125 L32,1103.15003 C35.4233605,1103.84493 38,1106.87156 38,1110.5 C38,1114.12844 35.4233605,1117.15507 32,1117.84997 L32,1148.15003 C35.4233605,1148.84493 38,1151.87156 38,1155.5 C38,1159.12844 35.4233605,1162.15507 32,1162.84997 L32,1194.15003 C35.4233605,1194.84493 38,1197.87156 38,1201.5 C38,1205.12844 35.4233605,1208.15507 32,1208.84997 L32,1240.15003 C35.4233605,1240.84493 38,1243.87156 38,1247.5 C38,1251.12844 35.4233605,1254.15507 32,1254.84997 L32,1340.15003 C35.4233605,1340.84493 38,1343.87156 38,1347.5 C38,1351.12844 35.4233605,1354.15507 32,1354.84997 L32,1386.15003 C35.4233605,1386.84493 38,1389.87156 38,1393.5 C38,1397.12844 35.4233605,1400.15507 32,1400.84997 L32,1432.15003 C35.4233605,1432.84493 38,1435.87156 38,1439.5 C38,1443.64214 34.6421356,1447 30.5,1447 C26.3578644,1447 23,1443.64214 23,1439.5 C23,1435.87156 25.5766395,1432.84493 29,1432.15003 L29,1400.84997 C25.5766395,1400.15507 23,1397.12844 23,1393.5 C23,1389.87156 25.5766395,1386.84493 29,1386.15003 L29,1354.84997 C25.5766395,1354.15507 23,1351.12844 23,1347.5 C23,1343.87156 25.5766395,1340.84493 29,1340.15003 L29,1254.84997 C25.5766395,1254.15507 23,1251.12844 23,1247.5 C23,1243.87156 25.5766395,1240.84493 29,1240.15003 L29,1208.84997 C25.5766395,1208.15507 23,1205.12844 23,1201.5 C23,1197.87156 25.5766395,1194.84493 29,1194.15003 L29,1162.84997 C25.5766395,1162.15507 23,1159.12844 23,1155.5 C23,1151.87156 25.5766395,1148.84493 29,1148.15003 L29,1117.84997 C25.5766395,1117.15507 23,1114.12844 23,1110.5 C23,1106.87156 25.5766395,1103.84493 29,1103.15003 L29,1027.97543 C18.4188885,1027.4544 10,1018.71037 10,1008 C10,997.28963 18.4188885,988.545596 29,988.024565 L29,930.849973 C25.5766395,930.155067 23,927.128437 23,923.5 C23,919.871563 25.5766395,916.844933 29,916.150027 L29,902.849973 C25.5766395,902.155067 23,899.128437 23,895.5 C23,891.871563 25.5766395,888.844933 29,888.150027 L29,874.849973 C25.5766395,874.155067 23,871.128437 23,867.5 C23,863.871563 25.5766395,860.844933 29,860.150027 L29,828.849973 C25.5766395,828.155067 23,825.128437 23,821.5 C23,817.871563 25.5766395,814.844933 29,814.150027 L29,800.849973 C25.5766395,800.155067 23,797.128437 23,793.5 C23,789.871563 25.5766395,786.844933 29,786.150027 L29,772.849973 C25.5766395,772.155067 23,769.128437 23,765.5 C23,761.871563 25.5766395,758.844933 29,758.150027 L29,744.849973 C25.5766395,744.155067 23,741.128437 23,737.5 C23,733.871563 25.5766395,730.844933 29,730.150027 L29,698.849973 C25.5766395,698.155067 23,695.128437 23,691.5 C23,687.871563 25.5766395,684.844933 29,684.150027 L29,670.849973 C25.5766395,670.155067 23,667.128437 23,663.5 C23,659.871563 25.5766395,656.844933 29,656.150027 L29,642.849973 C25.5766395,642.155067 23,639.128437 23,635.5 C23,631.871563 25.5766395,628.844933 29,628.150027 L29,596.849973 C25.5766395,596.155067 23,593.128437 23,589.5 C23,585.871563 25.5766395,582.844933 29,582.150027 L29,550.849973 C25.5766395,550.155067 23,547.128437 23,543.5 C23,539.871563 25.5766395,536.844933 29,536.150027 L29,504.849973 C25.5766395,504.155067 23,501.128437 23,497.5 C23,493.871563 25.5766395,490.844933 29,490.150027 L29,401.975435 C18.4188885,401.454404 10,392.71037 10,382 C10,371.28963 18.4188885,362.545596 29,362.024565 L29,317.849973 C25.5766395,317.155067 23,314.128437 23,310.5 C23,306.871563 25.5766395,303.844933 29,303.150027 L29,289.849973 C25.5766395,289.155067 23,286.128437 23,282.5 C23,278.871563 25.5766395,275.844933 29,275.150027 L29,244.849973 C25.5766395,244.155067 23,241.128437 23,237.5 C23,233.871563 25.5766395,230.844933 29,230.150027 L29,197.849973 C25.5766395,197.155067 23,194.128437 23,190.5 C23,186.871563 25.5766395,183.844933 29,183.150027 L29,98.975435 C18.4188885,98.4544037 10,89.7103702 10,79 C10,67.954305 18.954305,59 30,59 C41.045695,59 50,67.954305 50,79 C50,89.3706962 42.1066454,97.8978007 32,98.9012495 L32,183.150027 C35.4233605,183.844933 38,186.871563 38,190.5 C38,194.128437 35.4233605,197.155067 32,197.849973 L32,230.150027 C35.4233605,230.844933 38,233.871563 38,237.5 C38,241.128437 35.4233605,244.155067 32,244.849973 L32,275.150027 C35.4233605,275.844933 38,278.871563 38,282.5 C38,286.128437 35.4233605,289.155067 32,289.849973 L32,303.150027 C35.4233605,303.844933 38,306.871563 38,310.5 C38,314.128437 35.4233605,317.155067 32,317.849973 L32,362.09875 C42.1066454,363.102199 50,371.629304 50,382 C50,392.370696 42.1066454,400.897801 32,401.90125 L32,490.150027 C35.4233605,490.844933 38,493.871563 38,497.5 C38,501.128437 35.4233605,504.155067 32,504.849973 L32,536.150027 C35.4233605,536.844933 38,539.871563 38,543.5 C38,547.128437 35.4233605,550.155067 32,550.849973 L32,582.150027 C35.4233605,582.844933 38,585.871563 38,589.5 C38,593.128437 35.4233605,596.155067 32,596.849973 L32,628.150027 C35.4233605,628.844933 38,631.871563 38,635.5 C38,639.128437 35.4233605,642.155067 32,642.849973 L32,656.150027 C35.4233605,656.844933 38,659.871563 38,663.5 C38,667.128437 35.4233605,670.155067 32,670.849973 L32,684.150027 C35.4233605,684.844933 38,687.871563 38,691.5 C38,695.128437 35.4233605,698.155067 32,698.849973 L32,730.150027 C35.4233605,730.844933 38,733.871563 38,737.5 C38,741.128437 35.4233605,744.155067 32,744.849973 Z" id="Combined-Shape" stroke="none" fill="url(#linearGradient-1)" fill-rule="evenodd"></path>
</svg>