<?xml version="1.0" encoding="UTF-8" standalone="no"?>
<svg width="650px" height="1567px" viewBox="0 0 650 1567" version="1.1" xmlns="http://www.w3.org/2000/svg" xmlns:xlink="http://www.w3.org/1999/xlink">
    <!-- Generator: Sketch 39.1 (31720) - http://www.bohemiancoding.com/sketch -->
    <title>Group 16</title>
    <desc>Created with Sketch.</desc>
    <defs>
        <linearGradient x1="50%" y1="0.64971301%" x2="50%" y2="98.2242506%" id="linearGradient-1">
            <stop stop-color="#FF8F53" offset="0%"></stop>
            <stop stop-color="#FD61A3" offset="50.7015306%"></stop>
            <stop stop-color="#A15BFF" offset="100%"></stop>
        </linearGradient>
    </defs>
    <g id="Page-1" stroke="none" stroke-width="1" fill="none" fill-rule="evenodd">
        <g id="3-days-design" transform="translate(-293.000000, -1152.000000)">
            <g id="3" transform="translate(109.000000, 1152.000000)">
                <g id="Group-16" transform="translate(184.000000, 0.000000)">
                    <path d="M333.068556,25.1028371 C332.25095,35.6082246 317.623356,51.139435 287.697294,74.5690054 C276.303293,83.4895431 265.065127,91.8434601 241.987639,108.707768 C213.85874,129.263489 204.244467,136.356455 189.70865,147.436634 C150.053309,177.664605 120.170064,203.456778 96.7075458,228.98749 C68.0096186,260.215105 50.6812866,289.499096 46.0058345,317.584879 C43.2468049,334.158572 44.9482026,350.19095 51.3888882,365.662131 C60.9915048,388.728591 84.0334619,407.568754 120.839287,424.474692 C150.695467,438.188466 186.790345,449.839946 245.068999,465.720666 C252.374729,467.711451 259.946623,469.751059 270.02011,472.447311 C270.127101,472.475948 289.79409,477.733287 295.485293,479.260262 C316.477239,484.892498 331.991222,489.145989 347.260943,493.501206 C440.289234,520.034661 503.550603,545.412308 552.50917,580.050577 C613.323455,623.076787 645.234663,677.6977 645.234663,748.969258 C645.234663,823.33137 611.633129,880.75736 546.306778,929.324673 C518.620005,949.90859 485.391948,968.879054 444.418539,988.214123 C413.119599,1002.98388 385.519152,1014.5609 327.337716,1037.95693 C326.374547,1038.34424 325.084837,1038.86282 322.831996,1039.76867 C276.118534,1058.55236 254.127114,1067.63456 228.560024,1079.02491 C195.002483,1093.97507 166.899173,1108.14199 142.143937,1122.94192 C83.4651669,1158.02303 44.1868836,1196.56758 23.4966895,1243.5197 C-3.60372055,1305.01848 -6.17721995,1360.42633 12.0251786,1409.86816 C26.8397854,1450.10799 54.7511053,1484.79034 91.9332499,1514.17891 C111.904813,1529.96432 133.293545,1543.22276 154.682879,1554.05011 C162.170834,1557.84053 169.126115,1561.05722 175.37169,1563.71162 C177.56105,1564.64211 179.506447,1565.43624 181.185746,1566.0954 C182.993034,1566.79067 183.175126,1566.8582 183.271302,1566.89322 L186.51914,1563.81888 C184.558704,1563.10507 184.39172,1563.04314 184.141658,1562.94866 C181.002046,1561.72618 179.090975,1560.94607 176.936269,1560.03031 C170.770223,1557.4097 163.895412,1554.23023 156.489422,1550.4813 C135.324628,1539.76762 114.159231,1526.64762 94.413607,1511.04078 C57.7667964,1482.07534 30.3111736,1447.95924 15.7788715,1408.48621 C-2.05758177,1360.03837 0.466141938,1305.7022 27.1570507,1245.13269 C47.4652699,1199.04738 86.1684091,1161.06724 144.196491,1126.37514 C168.798542,1111.6668 196.765139,1097.56879 230.187822,1082.67871 C255.695417,1071.31487 277.656016,1062.2454 324.324289,1043.47988 C326.577063,1042.57405 327.866837,1042.05545 328.830065,1041.66811 C387.083519,1018.24312 414.732801,1006.64562 446.125591,991.831577 C487.319612,972.392402 520.767077,953.296675 548.693314,932.534727 C614.970045,883.260848 649.234663,824.701628 649.234663,748.969258 C649.234663,676.316111 616.638004,620.521945 554.819431,576.785199 C505.400043,541.820898 441.788364,516.302723 348.358066,489.654608 C333.064421,485.292566 317.532297,481.034102 296.52185,475.396903 C290.828538,473.869361 271.159753,468.611542 271.054337,468.583326 C260.98616,465.888496 253.419523,463.850304 246.120639,461.861385 C188.043423,446.035555 152.108377,434.435669 122.508893,420.839804 C86.5301455,404.313765 64.2174506,386.06988 55.0816736,364.124816 C48.9345097,349.358705 47.3138089,334.086739 49.9515357,318.241721 C54.4772408,291.05548 71.4325414,262.401893 99.6527488,231.694107 C122.925429,206.369968 152.649196,180.71544 192.133553,150.617804 C206.639908,139.560084 216.241952,132.47614 244.347704,111.937333 C267.461187,95.0467214 278.722487,86.6756075 290.163126,77.7185568 C321.138384,53.4675549 336.11057,37.5704658 337.061061,25.3348712 L337.957284,2.15394098 L334.037396,0.00115747134 L333.068556,25.1028371 Z" id="Line" fill="#FF6E6E"></path>
                    <path d="M335,789.849973 L335,807.150027 C338.42336,807.844933 341,810.871563 341,814.5 C341,818.128437 338.42336,821.155067 335,821.849973 L335,839.150027 C338.42336,839.844933 341,842.871563 341,846.5 C341,850.128437 338.42336,853.155067 335,853.849973 L335,871.150027 C338.42336,871.844933 341,874.871563 341,878.5 C341,882.128437 338.42336,885.155067 335,885.849973 L335,903.150027 C338.42336,903.844933 341,906.871563 341,910.5 C341,914.128437 338.42336,917.155067 335,917.849973 L335,935.150027 C338.42336,935.844933 341,938.871563 341,942.5 C341,946.128437 338.42336,949.155067 335,949.849973 L335,967.150027 C338.42336,967.844933 341,970.871563 341,974.5 C341,978.128437 338.42336,981.155067 335,981.849973 L335,1022.09875 C345.106645,1023.1022 353,1031.6293 353,1042 C353,1052.3707 345.106645,1060.8978 335,1061.90125 L335,1114.15003 C338.42336,1114.84493 341,1117.87156 341,1121.5 C341,1125.12844 338.42336,1128.15507 335,1128.84997 L335,1146.15003 C338.42336,1146.84493 341,1149.87156 341,1153.5 C341,1157.12844 338.42336,1160.15507 335,1160.84997 L335,1200.15003 C338.42336,1200.84493 341,1203.87156 341,1207.5 C341,1211.12844 338.42336,1214.15507 335,1214.84997 L335,1232.15003 C338.42336,1232.84493 341,1235.87156 341,1239.5 C341,1243.12844 338.42336,1246.15507 335,1246.84997 L335,1330.15003 C338.42336,1330.84493 341,1333.87156 341,1337.5 C341,1341.12844 338.42336,1344.15507 335,1344.84997 L335,1384.15003 C338.42336,1384.84493 341,1387.87156 341,1391.5 C341,1395.12844 338.42336,1398.15507 335,1398.84997 L335,1438.15003 C338.42336,1438.84493 341,1441.87156 341,1445.5 C341,1449.64214 337.642136,1453 333.5,1453 C329.357864,1453 326,1449.64214 326,1445.5 C326,1441.87156 328.57664,1438.84493 332,1438.15003 L332,1398.84997 C328.57664,1398.15507 326,1395.12844 326,1391.5 C326,1387.87156 328.57664,1384.84493 332,1384.15003 L332,1344.84997 C328.57664,1344.15507 326,1341.12844 326,1337.5 C326,1333.87156 328.57664,1330.84493 332,1330.15003 L332,1246.84997 C328.57664,1246.15507 326,1243.12844 326,1239.5 C326,1235.87156 328.57664,1232.84493 332,1232.15003 L332,1214.84997 C328.57664,1214.15507 326,1211.12844 326,1207.5 C326,1203.87156 328.57664,1200.84493 332,1200.15003 L332,1160.84997 C328.57664,1160.15507 326,1157.12844 326,1153.5 C326,1149.87156 328.57664,1146.84493 332,1146.15003 L332,1128.84997 C328.57664,1128.15507 326,1125.12844 326,1121.5 C326,1117.87156 328.57664,1114.84493 332,1114.15003 L332,1061.97543 C321.418888,1061.4544 313,1052.71037 313,1042 C313,1031.28963 321.418888,1022.5456 332,1022.02457 L332,981.849973 C328.57664,981.155067 326,978.128437 326,974.5 C326,970.871563 328.57664,967.844933 332,967.150027 L332,949.849973 C328.57664,949.155067 326,946.128437 326,942.5 C326,938.871563 328.57664,935.844933 332,935.150027 L332,917.849973 C328.57664,917.155067 326,914.128437 326,910.5 C326,906.871563 328.57664,903.844933 332,903.150027 L332,885.849973 C328.57664,885.155067 326,882.128437 326,878.5 C326,874.871563 328.57664,871.844933 332,871.150027 L332,853.849973 C328.57664,853.155067 326,850.128437 326,846.5 C326,842.871563 328.57664,839.844933 332,839.150027 L332,821.849973 C328.57664,821.155067 326,818.128437 326,814.5 C326,810.871563 328.57664,807.844933 332,807.150027 L332,789.849973 C328.57664,789.155067 326,786.128437 326,782.5 C326,778.871563 328.57664,775.844933 332,775.150027 L332,735.849973 C328.57664,735.155067 326,732.128437 326,728.5 C326,724.871563 328.57664,721.844933 332,721.150027 L332,703.849973 C328.57664,703.155067 326,700.128437 326,696.5 C326,692.871563 328.57664,689.844933 332,689.150027 L332,671.849973 C328.57664,671.155067 326,668.128437 326,664.5 C326,660.871563 328.57664,657.844933 332,657.150027 L332,639.849973 C328.57664,639.155067 326,636.128437 326,632.5 C326,628.871563 328.57664,625.844933 332,625.150027 L332,607.849973 C328.57664,607.155067 326,604.128437 326,600.5 C326,596.871563 328.57664,593.844933 332,593.150027 L332,575.849973 C328.57664,575.155067 326,572.128437 326,568.5 C326,564.871563 328.57664,561.844933 332,561.150027 L332,502.975435 C321.418888,502.454404 313,493.71037 313,483 C313,472.28963 321.418888,463.545596 332,463.024565 L332,400.849973 C328.57664,400.155067 326,397.128437 326,393.5 C326,389.871563 328.57664,386.844933 332,386.150027 L332,368.849973 C328.57664,368.155067 326,365.128437 326,361.5 C326,357.871563 328.57664,354.844933 332,354.150027 L332,337.849973 C328.57664,337.155067 326,334.128437 326,330.5 C326,326.871563 328.57664,323.844933 332,323.150027 L332,304.849973 C328.57664,304.155067 326,301.128437 326,297.5 C326,293.871563 328.57664,290.844933 332,290.150027 L332,230.975435 C321.418888,230.454404 313,221.71037 313,211 C313,199.954305 321.954305,191 333,191 C344.045695,191 353,199.954305 353,211 C353,221.370696 345.106645,229.897801 335,230.90125 L335,290.150027 C338.42336,290.844933 341,293.871563 341,297.5 C341,301.128437 338.42336,304.155067 335,304.849973 L335,323.150027 C338.42336,323.844933 341,326.871563 341,330.5 C341,334.128437 338.42336,337.155067 335,337.849973 L335,354.150027 C338.42336,354.844933 341,357.871563 341,361.5 C341,365.128437 338.42336,368.155067 335,368.849973 L335,386.150027 C338.42336,386.844933 341,389.871563 341,393.5 C341,397.128437 338.42336,400.155067 335,400.849973 L335,463.09875 C345.106645,464.102199 353,472.629304 353,483 C353,493.370696 345.106645,501.897801 335,502.90125 L335,561.150027 C338.42336,561.844933 341,564.871563 341,568.5 C341,572.128437 338.42336,575.155067 335,575.849973 L335,593.150027 C338.42336,593.844933 341,596.871563 341,600.5 C341,604.128437 338.42336,607.155067 335,607.849973 L335,625.150027 C338.42336,625.844933 341,628.871563 341,632.5 C341,636.128437 338.42336,639.155067 335,639.849973 L335,657.150027 C338.42336,657.844933 341,660.871563 341,664.5 C341,668.128437 338.42336,671.155067 335,671.849973 L335,689.150027 C338.42336,689.844933 341,692.871563 341,696.5 C341,700.128437 338.42336,703.155067 335,703.849973 L335,721.150027 C338.42336,721.844933 341,724.871563 341,728.5 C341,732.128437 338.42336,735.155067 335,735.849973 L335,775.150027 C338.42336,775.844933 341,778.871563 341,782.5 C341,786.128437 338.42336,789.155067 335,789.849973 Z" id="Combined-Shape" fill="url(#linearGradient-1)"></path>
                </g>
            </g>
        </g>
    </g>
</svg>